<svg width="54" height="54" viewBox="0 0 54 54" fill="none" xmlns="http://www.w3.org/2000/svg">
<path d="M39.4678 10.1108H14.5389C12.0989 10.1108 10.1122 12.0975 10.1122 14.5375V39.4616C10.1122 41.9016 12.0989 43.8883 14.5389 43.8883H39.4632C41.9032 43.8883 43.8899 41.9016 43.8899 39.4616V14.5375C43.8899 12.0974 41.9077 10.1108 39.4678 10.1108ZM40.3344 39.4621C40.3344 39.9421 39.9433 40.3332 39.4633 40.3332H14.539C14.059 40.3332 13.6679 39.9421 13.6679 39.4621V14.5379C13.6679 14.0579 14.059 13.6668 14.539 13.6668H39.4633C39.9433 13.6668 40.3344 14.0579 40.3344 14.5379V39.4621ZM33.2233 18.9997H20.7787C19.7965 18.9997 19.0009 19.7952 19.0009 20.7775V33.2219C19.0009 34.2042 19.7965 34.9997 20.7787 34.9997H33.2233C34.2055 34.9997 35.001 34.2042 35.001 33.2219V20.7775C35.001 19.7952 34.2055 18.9997 33.2233 18.9997ZM31.4455 31.4442H22.5565V22.5553H31.4455V31.4442ZM25.2229 5.66667V4.77778C25.2229 3.79553 26.0185 3 27.0007 3C27.983 3 28.7785 3.79553 28.7785 4.77778V5.66667C28.7785 6.64891 27.983 7.44444 27.0007 7.44444C26.0229 7.44444 25.2229 6.64891 25.2229 5.66667ZM15.4448 5.66667V4.77778C15.4448 3.79553 16.2403 3 17.2226 3C18.2048 3 19.0004 3.79553 19.0004 4.77778V5.66667C19.0004 6.64891 18.2048 7.44444 17.2226 7.44444C16.2403 7.44444 15.4448 6.64891 15.4448 5.66667ZM35.0005 5.66667V4.77778C35.0005 3.79553 35.796 3 36.7783 3C37.7605 3 38.556 3.79553 38.556 4.77778V5.66667C38.556 6.64891 37.7605 7.44444 36.7783 7.44444C35.796 7.44444 35.0005 6.64891 35.0005 5.66667ZM28.7779 48.3333V49.2222C28.7779 50.2045 27.9824 51 27.0001 51C26.0179 51 25.2224 50.2045 25.2224 49.2222V48.3333C25.2224 47.3511 26.0179 46.5556 27.0001 46.5556C27.9824 46.5556 28.7779 47.3511 28.7779 48.3333ZM18.9998 48.3333V49.2222C18.9998 50.2045 18.2043 51 17.222 51C16.2398 51 15.4442 50.2045 15.4442 49.2222V48.3333C15.4442 47.3511 16.2398 46.5556 17.222 46.5556C18.2043 46.5556 18.9998 47.3511 18.9998 48.3333ZM38.5555 48.3333V49.2222C38.5555 50.2045 37.7599 51 36.7777 51C35.7954 51 34.9999 50.2045 34.9999 49.2222V48.3333C34.9999 47.3511 35.7954 46.5556 36.7777 46.5556C37.7599 46.5556 38.5555 47.3511 38.5555 48.3333ZM51 27C51 27.9822 50.2045 28.7778 49.2222 28.7778H48.3333C47.3511 28.7778 46.5555 27.9822 46.5555 27C46.5555 26.0178 47.3511 25.2222 48.3333 25.2222H49.2222C50.2045 25.2222 51 26.0178 51 27ZM46.5555 17.2219C46.5555 16.2397 47.3511 15.4442 48.3333 15.4442H49.2222C50.2045 15.4442 51 16.2397 51 17.2219C51 18.2042 50.2045 18.9997 49.2222 18.9997H48.3333C47.3555 18.9997 46.5555 18.2042 46.5555 17.2219ZM51 36.7775C51 37.7597 50.2045 38.5553 49.2222 38.5553H48.3333C47.3511 38.5553 46.5555 37.7597 46.5555 36.7775C46.5555 35.7952 47.3511 34.9997 48.3333 34.9997H49.2222C50.2045 34.9997 51 35.7952 51 36.7775ZM7.44447 26.9994C7.44447 27.9817 6.64893 28.7772 5.66668 28.7772H4.77779C3.79554 28.7772 3 27.9817 3 26.9994C3 26.0172 3.79554 25.2217 4.77779 25.2217H5.66668C6.64893 25.2217 7.44447 26.0172 7.44447 26.9994ZM7.44447 17.2214C7.44447 18.2036 6.64893 18.9991 5.66668 18.9991H4.77779C3.79554 18.9991 3 18.2036 3 17.2214C3 16.2391 3.79554 15.4436 4.77779 15.4436H5.66668C6.64893 15.4436 7.44447 16.2391 7.44447 17.2214ZM7.44447 36.7769C7.44447 37.7592 6.64893 38.5547 5.66668 38.5547H4.77779C3.79554 38.5547 3 37.7592 3 36.7769C3 35.7947 3.79554 34.9991 4.77779 34.9991H5.66668C6.64893 34.9991 7.44447 35.7947 7.44447 36.7769Z" fill="#B43370"/>
</svg>
