<svg width="48" height="48" viewBox="0 0 48 48" fill="none" xmlns="http://www.w3.org/2000/svg">
<path d="M36.4678 7.11083H11.5389C9.09886 7.11083 7.11223 9.0975 7.11223 11.5375V36.4616C7.11223 38.9016 9.09892 40.8883 11.5389 40.8883H36.4632C38.9032 40.8883 40.8899 38.9016 40.8899 36.4616V11.5375C40.8899 9.09744 38.9077 7.11083 36.4678 7.11083ZM37.3344 36.4621C37.3344 36.9421 36.9433 37.3332 36.4633 37.3332H11.539C11.059 37.3332 10.6679 36.9421 10.6679 36.4621V11.5379C10.6679 11.0579 11.059 10.6668 11.539 10.6668H36.4633C36.9433 10.6668 37.3344 11.0579 37.3344 11.5379V36.4621ZM30.2233 15.9997H17.7787C16.7965 15.9997 16.0009 16.7952 16.0009 17.7775V30.2219C16.0009 31.2042 16.7965 31.9997 17.7787 31.9997H30.2233C31.2055 31.9997 32.001 31.2042 32.001 30.2219V17.7775C32.001 16.7952 31.2055 15.9997 30.2233 15.9997ZM28.4455 28.4442H19.5565V19.5553H28.4455V28.4442ZM22.2229 2.66667V1.77778C22.2229 0.795534 23.0185 0 24.0007 0C24.983 0 25.7785 0.795534 25.7785 1.77778V2.66667C25.7785 3.64891 24.983 4.44444 24.0007 4.44444C23.0229 4.44444 22.2229 3.64891 22.2229 2.66667ZM12.4448 2.66667V1.77778C12.4448 0.795534 13.2403 0 14.2226 0C15.2048 0 16.0004 0.795534 16.0004 1.77778V2.66667C16.0004 3.64891 15.2048 4.44444 14.2226 4.44444C13.2403 4.44444 12.4448 3.64891 12.4448 2.66667ZM32.0005 2.66667V1.77778C32.0005 0.795534 32.796 0 33.7783 0C34.7605 0 35.556 0.795534 35.556 1.77778V2.66667C35.556 3.64891 34.7605 4.44444 33.7783 4.44444C32.796 4.44444 32.0005 3.64891 32.0005 2.66667ZM25.7779 45.3333V46.2222C25.7779 47.2045 24.9824 48 24.0001 48C23.0179 48 22.2224 47.2045 22.2224 46.2222V45.3333C22.2224 44.3511 23.0179 43.5556 24.0001 43.5556C24.9824 43.5556 25.7779 44.3511 25.7779 45.3333ZM15.9998 45.3333V46.2222C15.9998 47.2045 15.2043 48 14.222 48C13.2398 48 12.4442 47.2045 12.4442 46.2222V45.3333C12.4442 44.3511 13.2398 43.5556 14.222 43.5556C15.2043 43.5556 15.9998 44.3511 15.9998 45.3333ZM35.5555 45.3333V46.2222C35.5555 47.2045 34.7599 48 33.7777 48C32.7954 48 31.9999 47.2045 31.9999 46.2222V45.3333C31.9999 44.3511 32.7954 43.5556 33.7777 43.5556C34.7599 43.5556 35.5555 44.3511 35.5555 45.3333ZM48 24C48 24.9822 47.2045 25.7778 46.2222 25.7778H45.3333C44.3511 25.7778 43.5555 24.9822 43.5555 24C43.5555 23.0178 44.3511 22.2222 45.3333 22.2222H46.2222C47.2045 22.2222 48 23.0178 48 24ZM43.5555 14.2219C43.5555 13.2397 44.3511 12.4442 45.3333 12.4442H46.2222C47.2045 12.4442 48 13.2397 48 14.2219C48 15.2042 47.2045 15.9997 46.2222 15.9997H45.3333C44.3555 15.9997 43.5555 15.2042 43.5555 14.2219ZM48 33.7775C48 34.7597 47.2045 35.5553 46.2222 35.5553H45.3333C44.3511 35.5553 43.5555 34.7597 43.5555 33.7775C43.5555 32.7952 44.3511 31.9997 45.3333 31.9997H46.2222C47.2045 31.9997 48 32.7952 48 33.7775ZM4.44447 23.9994C4.44447 24.9817 3.64893 25.7772 2.66668 25.7772H1.77779C0.795539 25.7772 0 24.9817 0 23.9994C0 23.0172 0.795539 22.2217 1.77779 22.2217H2.66668C3.64893 22.2217 4.44447 23.0172 4.44447 23.9994ZM4.44447 14.2214C4.44447 15.2036 3.64893 15.9991 2.66668 15.9991H1.77779C0.795539 15.9991 0 15.2036 0 14.2214C0 13.2391 0.795539 12.4436 1.77779 12.4436H2.66668C3.64893 12.4436 4.44447 13.2391 4.44447 14.2214ZM4.44447 33.7769C4.44447 34.7592 3.64893 35.5547 2.66668 35.5547H1.77779C0.795539 35.5547 0 34.7592 0 33.7769C0 32.7947 0.795539 31.9991 1.77779 31.9991H2.66668C3.64893 31.9991 4.44447 32.7947 4.44447 33.7769Z" fill="#6C1E8F"/>
</svg>
