<svg width="78" height="72" viewBox="0 0 78 72" fill="none" xmlns="http://www.w3.org/2000/svg">
<path d="M65.0413 16.3613L22.9205 16.3613C22.9961 17 22.9961 18.5 22.9961 19.9894H65.0413C66.8553 19.9894 68.367 21.501 68.367 23.3151V47.6531C68.367 49.4671 66.8553 50.9788 65.0413 50.9788H21.0514C19.2374 50.9788 17.7257 49.4671 17.7257 47.6531V27.5C16.5919 27.8779 15.307 28.1047 14.0977 28.2558V47.7287C14.0977 51.5835 17.1966 54.6824 21.0514 54.6824H65.0413C68.8961 54.6824 71.995 51.5835 71.995 47.7287V23.3151C71.995 19.4603 68.8961 16.3613 65.0413 16.3613Z" fill="#111111"/>
<path d="M46.7561 30.5H61.2439C62.1951 30.5 63 29.8125 63 29C63 28.1875 62.1951 27.5 61.2439 27.5H46.7561C45.8049 27.5 45 28.1875 45 29C45 29.8125 45.7317 30.5 46.7561 30.5Z" fill="#111111"/>
<path d="M46.7603 37.5H61.2444C62.1953 37.5 63 36.8125 63 36C63 35.1875 62.1953 34.5 61.2444 34.5H46.7603C45.8093 34.5 45.0046 35.1875 45.0046 36C44.9315 36.875 45.7361 37.5 46.7603 37.5Z" fill="#111111"/>
<path d="M46.7603 44.5H61.2444C62.1953 44.5 63 43.8125 63 43C63 42.1875 62.1953 41.5 61.2444 41.5H46.7603C45.8093 41.5 45.0046 42.1875 45.0046 43C44.9315 43.8125 45.7361 44.5 46.7603 44.5Z" fill="#111111"/>
<path d="M27.9961 19.5C27.9961 12.2952 22.2009 6.5 14.9961 6.5C7.79127 6.5 1.99609 12.2952 1.99609 19.5C1.99609 26.7048 7.79127 32.5 14.9961 32.5C22.1226 32.5 27.9961 26.6265 27.9961 19.5ZM21.1828 17.8554L14.5262 24.512C14.1346 24.9036 13.6648 25.0602 13.1166 25.0602C12.6467 25.0602 12.0985 24.9036 11.7069 24.512L8.41778 21.2229C7.63465 20.4398 7.63465 19.1867 8.41778 18.4819C9.20091 17.6988 10.4539 17.6988 11.1587 18.4819L13.1166 20.4398L18.4419 15.1145C19.225 14.3313 20.478 14.3313 21.1828 15.1145C21.966 15.8193 21.966 17.0723 21.1828 17.8554Z" fill="#ECECEC"/>
<path d="M24.9961 19.5C24.9961 13.9578 20.5383 9.5 14.9961 9.5C9.45393 9.5 4.99609 13.9578 4.99609 19.5C4.99609 25.0422 9.45393 29.5 14.9961 29.5C20.478 29.5 24.9961 24.9819 24.9961 19.5ZM19.7551 18.2349L14.6346 23.3554C14.3334 23.6566 13.972 23.7771 13.5503 23.7771C13.1889 23.7771 12.7672 23.6566 12.466 23.3554L9.93585 20.8253C9.33344 20.2229 9.33344 19.259 9.93585 18.7169C10.5383 18.1145 11.5021 18.1145 12.0443 18.7169L13.5503 20.2229L17.6467 16.1265C18.2491 15.5241 19.213 15.5241 19.7551 16.1265C20.3575 16.6687 20.3575 17.6325 19.7551 18.2349Z" fill="#5FCEBE"/>
<path d="M32.4997 33.8507C34.76 33.8507 36.5992 31.9773 36.5992 29.675C36.5992 27.3728 34.76 25.5 32.4997 25.5C30.2394 25.5 28.4008 27.3728 28.4008 29.675C28.4008 31.9773 30.2394 33.8507 32.4997 33.8507ZM32.4997 27.5788C33.6343 27.5788 34.5578 28.5188 34.5578 29.675C34.5578 30.8307 33.6343 31.7713 32.4997 31.7713C31.3651 31.7713 30.4416 30.8307 30.4416 29.675C30.4422 28.5194 31.3651 27.5788 32.4997 27.5788ZM32.4997 35.8022C27.813 35.8022 24 39.686 24 44.4603C24 45.0342 24.4573 45.5 25.0207 45.5H39.9793C40.5427 45.5 41 45.0348 41 44.4603C41 39.686 37.187 35.8022 32.4997 35.8022ZM26.1221 43.4206C26.6126 40.2853 29.2857 37.8815 32.5003 37.8815C35.7149 37.8815 38.388 40.2853 38.8785 43.4206H26.1221Z" fill="#111111" stroke="#111111"/>
</svg>
