<svg width="72" height="72" viewBox="0 0 72 72" fill="none" xmlns="http://www.w3.org/2000/svg">
<path d="M23.6449 15.5C21.1064 15.5 19 17.7277 19 20.4178V54.5822C19 57.2724 21.1041 59.5 23.6449 59.5H48.3574C50.8959 59.5 53 57.2724 53 54.5822V20.4178C53 17.7277 50.8959 15.5 48.3574 15.5H37.5137C37.0131 15.4975 36.5314 15.7075 36.1772 16.0801C35.8206 16.4551 35.6199 16.9626 35.6175 17.4926C35.6151 18.0276 35.8159 18.5377 36.1724 18.9152C36.5267 19.2927 37.0107 18.4986 37.5138 18.4986H48.3575C49.6603 18.4986 50.1702 19.1076 50.1702 20.4178V54.5822C50.1702 55.7578 49.1861 56.5014 48.3575 56.5014H23.645C22.6306 56.5014 21.8323 55.7578 21.8323 54.5822V20.4178C21.8323 19.1076 22.6306 18.4986 23.645 18.4986H34.4887C34.9893 18.4961 35.4687 19.2877 35.8229 18.9102C36.1748 18.5352 36.3731 18.0252 36.3708 17.4927C36.3684 16.3951 35.5277 15.505 34.4887 15.5L23.6449 15.5Z" fill="#111111"/>
<path d="M33.5357 10H39.4643C41.4167 10 43 11.099 43 12.4576L43 21.2466C43 21.7132 42.7341 22.1578 42.2619 22.4864C41.7897 22.815 41.1468 23 40.4802 23H32.5198C31.8532 23 31.2103 22.815 30.7381 22.4864C30.2659 22.1578 30 21.7132 30 21.2466L30 12.4576C30 11.099 31.5833 10 33.5357 10Z" fill="#ECECEC"/>
<path d="M34.4478 9.5H38.5522C39.9038 9.5 41 10.599 41 11.9576L41 20.7466C41 21.2132 40.8159 21.6578 40.489 21.9864C40.1621 22.315 39.717 22.5 39.2555 22.5H33.7445C33.283 22.5 32.8379 22.315 32.511 21.9864C32.1841 21.6578 32 21.2132 32 20.7466L32 11.9576C32 10.599 33.0961 9.5 34.4478 9.5Z" fill="#5545FF"/>
<path d="M36.4997 36.8507C38.76 36.8507 40.5992 34.9773 40.5992 32.675C40.5992 30.3728 38.76 28.5 36.4997 28.5C34.2394 28.5 32.4008 30.3728 32.4008 32.675C32.4008 34.9773 34.2394 36.8507 36.4997 36.8507ZM36.4997 30.5788C37.6343 30.5788 38.5578 31.5188 38.5578 32.675C38.5578 33.8307 37.6343 34.7713 36.4997 34.7713C35.3651 34.7713 34.4416 33.8307 34.4416 32.675C34.4422 31.5194 35.3651 30.5788 36.4997 30.5788ZM36.4997 38.8022C31.813 38.8022 28 42.686 28 47.4603C28 48.0342 28.4573 48.5 29.0207 48.5H43.9793C44.5427 48.5 45 48.0348 45 47.4603C45 42.686 41.187 38.8022 36.4997 38.8022ZM30.1221 46.4206C30.6126 43.2853 33.2857 40.8815 36.5003 40.8815C39.7149 40.8815 42.388 43.2853 42.8785 46.4206H30.1221Z" fill="#111111" stroke="#111111"/>
</svg>
