<svg width="78" height="73" viewBox="0 0 78 73" fill="none" xmlns="http://www.w3.org/2000/svg">
<path d="M65.0413 16.8613L22.9205 16.8613C22.9961 17.5 22.9961 19 22.9961 20.4894H65.0413C66.8553 20.4894 68.367 22.001 68.367 23.8151V48.1531C68.367 49.9671 66.8553 51.4788 65.0413 51.4788H21.0514C19.2374 51.4788 17.7257 49.9671 17.7257 48.1531V28C16.5919 28.3779 15.307 28.6047 14.0977 28.7558V48.2287C14.0977 52.0835 17.1966 55.1824 21.0514 55.1824H65.0413C68.8961 55.1824 71.995 52.0835 71.995 48.2287V23.8151C71.995 19.9603 68.8961 16.8613 65.0413 16.8613Z" fill="#111111"/>
<path d="M46.7561 31H61.2439C62.1951 31 63 30.3125 63 29.5C63 28.6875 62.1951 28 61.2439 28H46.7561C45.8049 28 45 28.6875 45 29.5C45 30.3125 45.7317 31 46.7561 31Z" fill="#111111"/>
<path d="M46.7603 38H61.2444C62.1953 38 63 37.3125 63 36.5C63 35.6875 62.1953 35 61.2444 35H46.7603C45.8093 35 45.0046 35.6875 45.0046 36.5C44.9315 37.375 45.7361 38 46.7603 38Z" fill="#111111"/>
<path d="M46.7603 45H61.2444C62.1953 45 63 44.3125 63 43.5C63 42.6875 62.1953 42 61.2444 42H46.7603C45.8093 42 45.0046 42.6875 45.0046 43.5C44.9315 44.3125 45.7361 45 46.7603 45Z" fill="#111111"/>
<path d="M27.9961 20C27.9961 12.7952 22.2009 7 14.9961 7C7.79127 7 1.99609 12.7952 1.99609 20C1.99609 27.2048 7.79127 33 14.9961 33C22.1226 33 27.9961 27.1265 27.9961 20ZM21.1828 18.3554L14.5262 25.012C14.1346 25.4036 13.6648 25.5602 13.1166 25.5602C12.6467 25.5602 12.0985 25.4036 11.7069 25.012L8.41778 21.7229C7.63465 20.9398 7.63465 19.6867 8.41778 18.9819C9.20091 18.1988 10.4539 18.1988 11.1587 18.9819L13.1166 20.9398L18.4419 15.6145C19.225 14.8313 20.478 14.8313 21.1828 15.6145C21.966 16.3193 21.966 17.5723 21.1828 18.3554Z" fill="#ECECEC"/>
<path d="M24.9961 20C24.9961 14.4578 20.5383 10 14.9961 10C9.45393 10 4.99609 14.4578 4.99609 20C4.99609 25.5422 9.45393 30 14.9961 30C20.478 30 24.9961 25.4819 24.9961 20ZM19.7551 18.7349L14.6346 23.8554C14.3334 24.1566 13.972 24.2771 13.5503 24.2771C13.1889 24.2771 12.7672 24.1566 12.466 23.8554L9.93585 21.3253C9.33344 20.7229 9.33344 19.759 9.93585 19.2169C10.5383 18.6145 11.5021 18.6145 12.0443 19.2169L13.5503 20.7229L17.6467 16.6265C18.2491 16.0241 19.213 16.0241 19.7551 16.6265C20.3575 17.1687 20.3575 18.1325 19.7551 18.7349Z" fill="#1E96E1"/>
<path d="M32.4997 34.3507C34.76 34.3507 36.5992 32.4773 36.5992 30.175C36.5992 27.8728 34.76 26 32.4997 26C30.2394 26 28.4008 27.8728 28.4008 30.175C28.4008 32.4773 30.2394 34.3507 32.4997 34.3507ZM32.4997 28.0788C33.6343 28.0788 34.5578 29.0188 34.5578 30.175C34.5578 31.3307 33.6343 32.2713 32.4997 32.2713C31.3651 32.2713 30.4416 31.3307 30.4416 30.175C30.4422 29.0194 31.3651 28.0788 32.4997 28.0788ZM32.4997 36.3022C27.813 36.3022 24 40.186 24 44.9603C24 45.5342 24.4573 46 25.0207 46H39.9793C40.5427 46 41 45.5348 41 44.9603C41 40.186 37.187 36.3022 32.4997 36.3022ZM26.1221 43.9206C26.6126 40.7853 29.2857 38.3815 32.5003 38.3815C35.7149 38.3815 38.388 40.7853 38.8785 43.9206H26.1221Z" fill="#111111" stroke="#111111"/>
</svg>
