<svg width="72" height="72" viewBox="0 0 72 72" fill="none" xmlns="http://www.w3.org/2000/svg">
<path d="M12 20.5H10V48.5H12V20.5Z" fill="#111111"/>
<path d="M19 20.5H14V48.5H19V20.5Z" fill="#111111"/>
<path d="M22 20.5H20V48.5H22V20.5Z" fill="#111111"/>
<path d="M26 20.5H24V48.5H26V20.5Z" fill="#111111"/>
<path d="M33 20.5H28V48.5H33V20.5Z" fill="#111111"/>
<path d="M36 20.5H34V48.5H36V20.5Z" fill="#111111"/>
<path d="M40 20.5H38V48.5H40V20.5Z" fill="#111111"/>
<path d="M45 20.5H43V48.5H45V20.5Z" fill="#111111"/>
<path d="M52 20.5H47V48.5H52V20.5Z" fill="#111111"/>
<path d="M57 20.5H55V48.5H57V20.5Z" fill="#111111"/>
<path d="M63 20.5H58V48.5H63V20.5Z" fill="#111111"/>
<path d="M60.4023 15.4844H68.3094V23.3914" stroke="#1E96E1" stroke-width="3.73954" stroke-linecap="square"/>
<path d="M11.9785 15.4844H4.07151V23.3914" stroke="#1E96E1" stroke-width="3.73954" stroke-linecap="square"/>
<path d="M11.9785 55.0195L4.07151 55.0195L4.07151 47.1125" stroke="#1E96E1" stroke-width="3.73954" stroke-linecap="square"/>
<path d="M60.4023 55.0195L68.3094 55.0195L68.3094 47.1125" stroke="#1E96E1" stroke-width="3.73954" stroke-linecap="square"/>
</svg>
