<svg width="72" height="72" viewBox="0 0 72 72" fill="none" xmlns="http://www.w3.org/2000/svg">
<rect x="24" y="11" width="24" height="39" rx="2" fill="#5545FF"/>
<path d="M44 30C44 25.5663 40.4337 22 36 22C31.5663 22 28 25.5663 28 30C28 34.4337 31.5663 38 36 38C40.3855 38 44 34.3855 44 30ZM39.8072 28.988L35.7108 33.0843C35.4699 33.3253 35.1807 33.4217 34.8434 33.4217C34.5542 33.4217 34.2169 33.3253 33.9759 33.0843L31.9518 31.0602C31.4699 30.5783 31.4699 29.8072 31.9518 29.3735C32.4337 28.8916 33.2048 28.8916 33.6386 29.3735L34.8434 30.5783L38.1205 27.3012C38.6024 26.8193 39.3735 26.8193 39.8072 27.3012C40.2892 27.7349 40.2892 28.506 39.8072 28.988Z" fill="white"/>
<rect x="52.25" y="6.75" width="54.5" height="32.5" rx="4.25" transform="rotate(90 52.25 6.75)" stroke="#111111" stroke-width="3.5"/>
<path d="M35.4825 57C36.8811 57 38 55.8889 38 54.5C38 53.1111 36.8811 52 35.4825 52C34.0839 52 33 53.1458 33 54.5347C33 55.8889 34.1189 57 35.4825 57Z" fill="#111111"/>
</svg>
