<svg width="72" height="72" viewBox="0 0 72 72" fill="none" xmlns="http://www.w3.org/2000/svg">
<path d="M23.7695 19.7148H6.76953V26.7603C8.9362 27.5431 13.2695 30.4239 13.2695 35.6845C13.2695 40.9451 8.9362 43.5128 6.76953 44.1391V50.7148H23.7695V19.7148Z" fill="#5545FF"/>
<path d="M64.685 28.9286C65.3041 28.8491 65.7688 28.3049 65.7688 27.6589V20.3092C65.7688 18.879 64.6441 17.7148 63.2622 17.7148H8.27612C6.89426 17.7148 5.76953 18.879 5.76953 20.3092V27.7808C5.76953 28.383 6.17532 28.9041 6.74415 29.0312C9.75924 29.7062 11.9476 32.5169 11.9476 35.7148C11.9476 38.9128 9.75924 41.7235 6.74415 42.3985C6.17532 42.5264 5.76953 43.0467 5.76953 43.6489V51.1205C5.76953 52.5507 6.89426 53.7148 8.27612 53.7148H63.263C64.6448 53.7148 65.7695 52.5515 65.7695 51.1205V43.7708C65.7695 43.1248 65.3048 42.5806 64.6857 42.5011C61.3884 42.0781 58.9012 39.1604 58.9012 35.7148C58.9012 32.2693 61.3877 29.3516 64.685 28.9286ZM63.2974 44.8316V51.1205C63.2974 51.1376 63.2795 51.1562 63.263 51.1562H24.7667V49.6954H22.2946V51.1562H8.27612C8.2596 51.1562 8.24164 51.1376 8.24164 51.1205V44.6204C11.8744 43.3478 14.4198 39.7558 14.4198 35.7141C14.4198 31.6724 11.8751 28.0804 8.24164 26.8085V20.3085C8.24164 20.2914 8.2596 20.2728 8.27612 20.2728H22.2946V21.5521H24.7667V20.2728H63.263C63.2795 20.2728 63.2974 20.2914 63.2974 20.3085V26.5974C59.3135 27.6292 56.4284 31.3661 56.4284 35.7148C56.4284 40.0636 59.3135 43.8012 63.2974 44.8316ZM22.2946 39.4622H24.7667V42.0209H22.2946V39.4622ZM22.2946 34.3448H24.7667V36.9035H22.2946V34.3448ZM22.2946 29.2282H24.7667V31.7869H22.2946V29.2282ZM22.2946 24.1108H24.7667V26.6695H22.2946V24.1108ZM22.2946 44.5788H24.7667V47.1375H22.2946V44.5788Z" fill="#111111" stroke="#111111"/>
<path d="M42.4997 34.3507C44.76 34.3507 46.5992 32.4773 46.5992 30.175C46.5992 27.8728 44.76 26 42.4997 26C40.2394 26 38.4008 27.8728 38.4008 30.175C38.4008 32.4773 40.2394 34.3507 42.4997 34.3507ZM42.4997 28.0788C43.6343 28.0788 44.5578 29.0188 44.5578 30.175C44.5578 31.3307 43.6343 32.2713 42.4997 32.2713C41.3651 32.2713 40.4416 31.3307 40.4416 30.175C40.4422 29.0194 41.3651 28.0788 42.4997 28.0788ZM42.4997 36.3022C37.813 36.3022 34 40.186 34 44.9603C34 45.5342 34.4573 46 35.0207 46H49.9793C50.5427 46 51 45.5348 51 44.9603C51 40.186 47.187 36.3022 42.4997 36.3022ZM36.1221 43.9206C36.6126 40.7853 39.2857 38.3815 42.5003 38.3815C45.7149 38.3815 48.388 40.7853 48.8785 43.9206H36.1221Z" fill="#111111" stroke="#111111"/>
</svg>
