<svg width="72" height="72" viewBox="0 0 72 72" fill="none" xmlns="http://www.w3.org/2000/svg">
<rect x="24" y="11" width="24" height="39" rx="2" fill="#5FCEBE"/>
<path d="M35.3869 34.3124C33.9475 34.3289 32.7893 33.2038 32.8058 31.0695C32.7893 28.8524 34.0136 27.7935 35.3869 27.7935C36.3631 27.7935 36.8926 28.3725 37.1076 28.8855H37.1738V27.9589H38.9276V32.0622C38.9442 32.5751 39.1427 32.8233 39.5233 32.8233C40.2844 32.8233 40.7476 31.9795 40.7476 30.6393C40.7476 27.9589 38.8946 26.1885 36.0156 26.2051C33.1202 26.1885 31.2506 28.2236 31.2506 31.0695C31.2506 34.0973 32.872 35.9504 35.9826 35.9338C37.1407 35.9338 38.0507 35.818 38.9276 35.6029V37.2905C38.0673 37.5387 37.058 37.6876 35.9826 37.6876C31.8627 37.6876 29.5298 35.0735 29.5298 31.0695C29.5298 27.2309 32.1936 24.4513 36.0156 24.4513C39.8211 24.4513 42.4849 27.0324 42.4684 30.6062C42.4684 33.0218 41.2606 34.4116 39.3578 34.4116C38.2658 34.3951 37.4386 33.9153 37.24 33.2204H37.1738C36.9422 33.7167 36.3796 34.3289 35.3869 34.3124ZM34.7913 31.0695C34.8078 32.0291 35.238 32.6909 36.0156 32.6909C36.7933 32.6909 37.2235 32.0622 37.24 31.0695C37.2235 30.0436 36.8098 29.4315 36.0156 29.4149C35.238 29.4315 34.8078 30.0767 34.7913 31.0695Z" fill="#F3F3F3"/>
<rect x="52.25" y="6.75" width="54.5" height="32.5" rx="4.25" transform="rotate(90 52.25 6.75)" stroke="#111111" stroke-width="3.5"/>
<path d="M35.4825 57C36.8811 57 38 55.8889 38 54.5C38 53.1111 36.8811 52 35.4825 52C34.0839 52 33 53.1458 33 54.5347C33 55.8889 34.1189 57 35.4825 57Z" fill="#111111"/>
</svg>
