<svg width="110" height="31" viewBox="0 0 110 31" fill="none" xmlns="http://www.w3.org/2000/svg">
<g clip-path="url(#clip0_231_29396)">
<path d="M51.6819 7.71875H48.5391V27.3538H51.6819V14.7987H54.5928V13.0362H51.6819V7.71875Z" fill="#F3F3F3"/>
<path d="M41.0535 21.3236C39.6991 21.3236 38.5991 19.1561 38.5991 16.4711C38.5991 13.7861 39.6916 11.6186 41.046 11.6111C42.4004 11.6111 43.5004 13.7861 43.5079 16.4636C43.5079 19.1411 42.4229 21.3236 41.061 21.3236M42.595 7.24609H39.4521V9.08359H35.1719V10.8461H38.0977C36.5113 12.0161 35.4562 14.0936 35.4562 16.4711C35.4562 20.1311 37.9481 23.0936 41.0236 23.0936C44.0991 23.0936 46.5909 20.1311 46.5909 16.4711C46.5909 14.0936 45.5358 12.0161 43.9494 10.8461H46.8828V9.08359H42.5875V7.24609H42.595Z" fill="#F3F3F3"/>
<path d="M73.9224 13.0359H71.0115V7.71094H67.8687V19.5834C67.3524 20.0934 66.5517 20.6334 65.4666 20.6109H60.468C59.7272 20.6109 59.1286 20.0109 59.1286 19.2834V8.59594H56.0156L56.0306 19.2834C56.0306 20.9934 57.4299 22.3809 59.151 22.3809H64.5612C64.5612 22.3809 66.4694 22.4784 67.8612 21.2034V27.3459H71.0041V14.7834H73.9149V13.0284L73.9224 13.0359Z" fill="#F3F3F3"/>
<path d="M82.6759 9.03141C84.0378 9.03141 85.1453 10.7714 85.1528 12.9389C85.1677 15.0989 84.0827 16.8689 82.7283 16.8764C81.3738 16.8839 80.2664 15.1364 80.2514 12.9689C80.2364 10.8014 81.3215 9.03891 82.6759 9.03141ZM88.1534 12.9464C88.1534 9.80391 85.6616 7.25391 82.5936 7.25391C79.5255 7.25391 77.0262 9.80391 77.0262 12.9464C77.0262 14.9114 78.0065 16.6439 79.4881 17.6714H73.7188V19.5089H76.1283V24.2264C76.1357 25.9439 77.5351 27.3314 79.2636 27.3314H89.8596V25.5614H80.5807C79.8473 25.5614 79.2487 24.9689 79.2487 24.2264V19.5089H91.3187V17.6714H85.6915C87.1732 16.6514 88.1534 14.9189 88.1534 12.9464Z" fill="#F3F3F3"/>
<path d="M96.5815 18.0158C95.8107 18.0233 95.1821 16.5908 95.1672 14.8208C95.1522 13.0508 95.7658 11.6108 96.5441 11.6033C97.3148 11.5958 97.9509 13.0283 97.9658 14.7983C97.9658 16.5683 97.3522 18.0083 96.589 18.0158M101.071 14.8058C101.071 13.1858 100.368 11.7458 99.2753 10.8383H101.243V9.07578H98.1379V7.23828H94.9951V9.07578H91.8672V10.8383H93.8502C92.7577 11.7458 92.0543 13.1858 92.0543 14.8058C92.0543 17.5583 94.0672 19.7858 96.559 19.7858C99.0509 19.7858 101.071 17.5583 101.071 14.8058Z" fill="#F3F3F3"/>
<path d="M104.361 26.1537C102.999 26.1537 101.899 24.4062 101.899 22.2462C101.899 20.0787 102.984 18.3162 104.339 18.3162C105.693 18.3162 106.801 20.0637 106.808 22.2312C106.808 24.3987 105.723 26.1612 104.369 26.1612M106.891 13.4037V17.2587C106.442 17.0187 105.963 16.8387 105.454 16.7262V13.3888H106.891V13.4037ZM109.854 22.1337V7.73375H106.883V11.6562H105.446V7.71875H102.453V16.9362C100.283 17.7162 98.7266 19.8162 98.7266 22.2987C98.7266 25.4412 101.218 27.9837 104.294 27.9837C107.369 27.9837 109.854 25.4412 109.854 22.2987C109.854 22.2462 109.854 22.1937 109.854 22.1337Z" fill="#F3F3F3"/>
<path d="M21.3804 18.0084C21.3055 17.5509 21.1783 17.1159 20.9987 16.7034C20.4225 15.4659 19.6293 14.4234 18.4246 13.7184C16.5613 12.6309 14.3089 12.6384 12.4681 13.7559C11.6375 14.2584 10.9491 14.9859 10.5076 15.8634C10.3579 16.1559 10.2382 16.4709 10.1334 16.7859C9.64704 18.3309 9.662 20.4159 10.5375 21.8259C10.8219 22.2909 11.2334 22.6809 11.7423 22.8759C12.2511 23.0709 12.8498 23.0484 13.2987 22.7559C13.8824 22.3809 13.9872 21.6534 13.8824 21.0084C13.7477 20.1909 13.643 19.3809 13.9423 18.5709C14.0396 18.3159 14.1742 18.0684 14.3763 17.8734C14.496 17.7609 14.6382 17.6634 14.7879 17.5884C15.1021 17.4309 15.4688 17.3634 15.813 17.4234C16.4266 17.5209 16.9205 17.9934 17.1974 18.5559C17.4668 19.1109 17.5416 19.7409 17.5715 20.3634C17.6987 23.0559 17.0552 25.8534 16.3742 28.4409C16.3069 28.7109 16.2321 28.9734 16.1572 29.2359C16.0974 29.4384 15.9926 29.7009 16.1273 29.9034C16.1872 29.9859 16.2695 30.0459 16.3668 30.0834C16.7634 30.2484 17.0926 30.0009 17.3545 29.7309C18.9334 28.1409 19.9436 26.0934 20.6321 23.9784C20.894 23.1909 21.111 22.3884 21.2606 21.5709C21.4627 20.4534 21.5824 19.1784 21.3804 18.0009" fill="#008E90"/>
<path d="M32.6756 5.54297C32.6756 5.13797 32.3165 4.87547 31.9348 4.88297C31.5457 4.89797 31.1865 5.10047 30.8273 5.23547C23.8906 7.87547 16.0709 8.37797 8.75999 7.32797C7.51033 7.14797 6.2457 6.89297 4.98108 6.69797C4.19536 6.57797 3.41713 6.39797 2.62394 6.33797C1.95047 6.28547 1.10489 6.26297 0.558629 6.73547C-0.159738 7.35797 -0.11484 8.54297 0.296724 9.32297C0.790602 10.2605 1.65115 10.9655 2.54162 11.498C3.40965 12.0155 4.44979 12.5705 5.48244 12.503C8.2736 12.323 11.0648 12.053 13.8409 11.693C18.5777 11.078 23.5389 10.493 27.9913 8.65547C29.443 8.05547 30.8797 7.30547 32.1294 6.33047C32.3539 6.15797 32.6831 5.87297 32.6831 5.54297" fill="#008E90"/>
<path d="M12.7809 3.16633C12.7809 4.67383 14.0006 5.89633 15.5122 5.89633C17.0238 5.89633 18.236 4.67383 18.236 3.16633C18.236 2.94133 18.1836 2.71633 18.0864 2.51383C17.8544 2.01883 17.5925 1.77133 17.6149 1.17883C17.6449 0.376328 16.6197 0.361328 16.066 0.361328C15.4598 0.361328 14.8238 0.443828 14.2775 0.721328C13.8435 0.938828 13.4694 1.27633 13.2075 1.68883C12.9381 2.10883 12.7884 2.60383 12.7734 3.10633C12.7734 3.12883 12.7734 3.15133 12.7734 3.16633" fill="#E1005B"/>
</g>
<defs>
<clipPath id="clip0_231_29396">
<rect width="110" height="30" fill="white" transform="translate(0 0.361328)"/>
</clipPath>
</defs>
</svg>
