<svg width="39" height="38" viewBox="0 0 39 38" fill="none" xmlns="http://www.w3.org/2000/svg">
<path d="M38.0591 19.0007C38.0591 28.5968 30.9479 36.5302 21.7099 37.8176C20.8462 37.9374 19.9624 38 19.0654 38C18.0299 38 17.0131 37.9174 16.0229 37.7577C6.97785 36.3012 0.0703125 28.457 0.0703125 19.0007C0.0703125 8.50716 8.57497 0 19.064 0C29.5531 0 38.0591 8.50716 38.0591 19.0007Z" fill="#1877F2"/>
<path d="M21.7096 15.2557V19.3948H26.8284L26.0179 24.9704H21.7096V37.8163C20.8459 37.9362 19.9621 37.9987 19.0651 37.9987C18.0296 37.9987 17.0128 37.9162 16.0226 37.7564V24.9704H11.3018V19.3948H16.0226V14.3305C16.0226 11.1885 18.5686 8.64038 21.711 8.64038V8.64304C21.7203 8.64304 21.7283 8.64038 21.7376 8.64038H26.8297V13.4624H23.5024C22.5135 13.4624 21.711 14.2652 21.711 15.2544L21.7096 15.2557Z" fill="white"/>
</svg>
