<svg width="24" height="24" viewBox="0 0 24 24" fill="none" xmlns="http://www.w3.org/2000/svg">
<path fill-rule="evenodd" clip-rule="evenodd" d="M24 12C24 5.37216 18.6278 0 12 0C5.37216 0 0 5.37216 0 12C0 18.6278 5.37216 24 12 24C18.6278 24 24 18.6278 24 12ZM1.74967 12.8571C1.9211 14.9411 2.71395 16.8483 3.94288 18.3944C4.73573 17.9069 5.62288 17.4923 6.58181 17.1633C6.26683 15.8433 6.06967 14.3895 6.01503 12.8573L1.74967 12.8571ZM7.73047 11.1429H16.2698C16.2173 9.7607 16.0394 8.46643 15.7662 7.30286C14.5673 7.57179 13.3105 7.71108 12.042 7.71429C10.7456 7.7175 9.45984 7.57822 8.23408 7.30286C7.96087 8.46643 7.78297 9.7607 7.73047 11.1429ZM17.9852 11.1429C17.9305 9.61072 17.7334 8.15671 17.4184 6.83685C18.3773 6.50792 19.2645 6.09328 20.0573 5.60577C21.2863 7.15184 22.0791 9.05903 22.2506 11.143L17.9852 11.1429ZM7.73047 12.8571C7.78297 14.2393 7.96082 15.5336 8.23403 16.6971C9.43296 16.4282 10.6897 16.2889 11.9583 16.2857C13.2547 16.2825 14.5404 16.4218 15.7662 16.6971C16.0394 15.5336 16.2173 14.2393 16.2698 12.8571H7.73047ZM17.9852 12.8571C17.9305 14.3893 17.7334 15.8433 17.4184 17.1632C18.3763 17.4921 19.2645 17.9067 20.0573 18.3942C21.2863 16.8482 22.0791 14.941 22.2506 12.8569L17.9852 12.8571ZM1.74994 11.1429H6.01536C6.07 9.61072 6.26715 8.15671 6.58214 6.83685C5.62428 6.50792 4.73606 6.09328 3.94321 5.60577C2.71428 7.15184 1.92137 9.05883 1.74994 11.1429ZM18.8511 4.32741C18.2736 4.65526 17.634 4.94455 16.9408 5.18776C16.5636 4.09703 16.0997 3.13703 15.5672 2.34945C16.7875 2.80051 17.8985 3.47671 18.8511 4.32741ZM14.7099 4.28133C13.7146 2.29169 12.6581 1.71418 12.0003 1.71418C11.3425 1.71418 10.286 2.29169 9.29066 4.28133C9.08173 4.69918 8.88889 5.15776 8.71315 5.65276C9.77922 5.88419 10.901 6.00204 12.0378 5.9999C13.1499 5.99668 14.246 5.87883 15.2875 5.65276C15.1118 5.15776 14.9189 4.69918 14.7099 4.28133ZM18.8511 19.6723C17.8986 20.5231 16.7875 21.1991 15.5671 21.6502C16.0996 20.8627 16.5635 19.9027 16.9407 18.8119C17.6339 19.054 18.2736 19.3445 18.8511 19.6723ZM14.7099 19.7184C14.9189 19.3006 15.1117 18.842 15.2875 18.347C14.2214 18.1155 13.0996 17.9977 11.9628 17.9998C10.8507 18.002 9.75461 18.1209 8.7131 18.347C8.88881 18.842 9.08168 19.3006 9.29061 19.7184C10.286 21.708 11.3424 22.2855 12.0002 22.2855C12.6581 22.2855 13.7146 21.708 14.7099 19.7184ZM8.43346 21.6502C7.90096 20.8627 7.43704 19.9027 7.05989 18.8119C6.36669 19.054 5.72703 19.3444 5.14955 19.6722C6.10206 20.523 7.213 21.1991 8.43346 21.6502ZM5.14944 4.32741C5.72695 4.65526 6.36658 4.94562 7.05978 5.18776C7.43693 4.09703 7.90086 3.13703 8.43335 2.34945C7.213 2.80051 6.10203 3.47671 5.14944 4.32741Z" fill="#111111"/>
</svg>
