<svg width="138" height="54" viewBox="0 0 138 54" fill="none" xmlns="http://www.w3.org/2000/svg">
<g clip-path="url(#clip0_110_5195)">
<path d="M23.6559 46.273C23.6559 48.2014 22.3298 49.0976 20.3678 49.0976C18.4058 49.0976 17.0797 48.2014 17.0797 46.273V44.9694C17.0797 44.5349 17.2694 43.9644 17.4856 43.6792H16.6328V41.9683H19.2446V40.7324H21.4909V41.9683H24.1028V43.6792H23.25C23.453 43.9644 23.6559 44.5349 23.6559 44.9694V46.273ZM17.4175 53.864V49.6542H19.6638V51.99H27.0657V53.864H17.4169H17.4175ZM21.4096 45.0238C21.4096 43.91 21.1254 43.5438 20.3678 43.5438C19.6102 43.5438 19.326 43.9106 19.326 45.0238V45.9068C19.326 47.0206 19.6102 47.3868 20.3678 47.3868C21.1254 47.3868 21.4096 47.0199 21.4096 45.9068V45.0238ZM24.7381 50.8357V41.5066H26.9844V44.6026H28.446V46.5038H26.9844V50.8357H24.7381Z" fill="#0C3867"/>
<path d="M37.5669 53.9322V50.8634H29.6098V49.071H33.5206V48.2291H28.96V46.4639H40.4624V48.2291H35.9017V49.071H39.8126V53.9329H37.5663L37.5669 53.9322ZM37.2556 46.1236L37.5127 43.6519C37.5398 43.3805 37.4043 43.2717 37.1339 43.2717H29.6778V41.5337H39.1911C39.6651 41.5337 39.9216 41.8322 39.8813 42.2807L39.5025 46.1236H37.2562H37.2556Z" fill="#0C3867"/>
<path d="M41.8965 52.7778V42.4842C41.8965 41.846 42.1669 41.5747 42.8034 41.5747H48.6763V43.3943H44.1428V50.9581H49.1093V52.7778H41.8965ZM49.7994 53.891V41.5063H52.0457V53.891H49.7994Z" fill="#0C3867"/>
<path d="M59.0008 52.9947L58.0403 43.7466C58.0132 43.5025 57.9187 43.3937 57.756 43.3937H57.4176C57.2417 43.3937 57.1604 43.5429 57.1333 43.7466L55.9289 52.9947H53.6826L54.9955 43.3937H53.7778V41.574H61.5181V43.3937H60.1782L61.2471 52.9947H59.0008ZM62.0589 53.891V41.5063H64.3052V53.891H62.0589Z" fill="#0C3867"/>
<path d="M66.1445 47.6852V42.4843C66.1445 41.8461 66.4149 41.5748 67.0515 41.5748H72.654V43.1769H68.3914V43.829H72.3836V45.4045H68.3914V46.0838H73.358V47.6858H66.1452L66.1445 47.6852ZM66.8618 53.8911V50.3195H74.3179V49.8034H66.8347V48.2279H76.5641V50.7401C76.5641 51.5547 76.3612 51.7584 75.5494 51.7584H69.1081V52.2878H76.6996V53.8898H66.8618V53.8911ZM74.3185 47.7801V45.2811H72.925V43.4343H74.3185V41.5059H76.5648V47.7801H74.3185Z" fill="#0C3867"/>
<path d="M81.9504 47.0331V48.4859H79.8396V47.0331H77.9854V45.5531H83.9805V47.0331H81.9504ZM80.8814 45.2001C79.1898 45.2001 78.1076 44.6435 78.1076 43.2717C78.1076 41.8998 79.1904 41.3433 80.8814 41.3433H81.0983C82.7899 41.3433 83.8721 41.8998 83.8721 43.2717C83.8721 44.6435 82.7893 45.2001 81.0983 45.2001H80.8814ZM79.1898 53.8911V50.7268H86.9169V50.2922H79.1627V48.8255H89.1632V50.9981C89.1632 51.8127 88.9602 52.0164 88.1484 52.0164H81.4361V52.3965H89.2987V53.8904H79.1898V53.8911ZM80.9898 42.8372C80.4623 42.8372 80.1371 42.9864 80.1371 43.2717C80.1371 43.5569 80.4617 43.7062 80.9898 43.7062C81.518 43.7062 81.8426 43.5569 81.8426 43.2717C81.8426 42.9864 81.518 42.8372 80.9898 42.8372ZM82.9928 48.4865V47.3727H84.5628V41.5064H86.5658V48.4865H82.9935H82.9928ZM87.1469 48.4865V41.5064H89.1632V48.4865H87.1469Z" fill="#0C3867"/>
<path d="M90.9355 52.7778V41.5747H93.1818V50.9581H98.1483V52.7778H90.9355ZM98.8385 53.891V41.5063H101.085V53.891H98.8385Z" fill="#0C3867"/>
<path d="M102.519 53.0766V51.3113H114.021V53.0766H102.519ZM111.585 49.2469L110.137 43.8423C110.056 43.571 109.907 43.4078 109.501 43.4078H107.038C106.632 43.4078 106.484 43.571 106.402 43.8423L104.955 49.2469H102.681L104.305 43.299C104.643 42.1176 105.049 41.6426 106.632 41.6426H109.907C111.49 41.6426 111.896 42.1176 112.235 43.299L113.858 49.2469H111.585Z" fill="#0C3867"/>
<path d="M123.358 48.1339V47.1428H122.329V45.3504H123.358V44.5085H122.329V43.5851H121.518C121.721 43.8704 121.923 44.4409 121.923 44.8754V45.432C121.923 47.3604 120.597 48.2566 118.635 48.2566C116.673 48.2566 115.347 47.3604 115.347 45.432V44.8754C115.347 44.4409 115.537 43.8704 115.753 43.5851H114.9V41.9014H117.512V40.7339H119.759V41.9014H122.37V42.7161H123.358V41.5074H125.604V48.1345H123.358V48.1339ZM115.902 53.8914V48.6222H118.148V49.3692H123.358V48.6222H125.604V52.5739C125.604 53.5246 125.239 53.8914 124.291 53.8914H115.901H115.902ZM119.677 44.9291C119.677 43.8153 119.393 43.4491 118.635 43.4491C117.878 43.4491 117.594 43.816 117.594 44.9291V45.0923C117.594 46.2061 117.878 46.5723 118.635 46.5723C119.393 46.5723 119.677 46.2055 119.677 45.0923V44.9291ZM123.358 51.1078H118.148V52.1261H123.358V51.1078Z" fill="#0C3867"/>
<path d="M127.363 52.8317V51.012H129.961V49.4365C128.635 49.1241 127.796 48.2551 127.796 46.7339V45.9054C127.796 45.0636 127.972 44.3982 128.459 43.9909H127.296V42.2528H130.043V40.8677H132.29V42.2528H134.996V43.9909H133.832C134.333 44.3982 134.495 45.0636 134.495 45.9054V46.7339C134.495 48.2411 133.657 49.1241 132.344 49.4365V51.012H135.267V52.8317H127.364H127.363ZM132.249 45.6075C132.249 44.4665 131.924 43.9915 131.166 43.9915C130.367 43.9915 130.043 44.5348 130.043 45.6075V46.178C130.043 47.2779 130.381 47.794 131.166 47.794C131.95 47.794 132.249 47.2918 132.249 46.178V45.6075ZM135.753 53.8911V41.5065H137.999V53.8911H135.753Z" fill="#0C3867"/>
<path d="M1.46202 47.9701C1.46202 49.0023 1.55845 50.025 1.75069 51.0389C1.94292 52.0528 2.28641 53.0394 2.78055 53.9989H1.62589C1.145 53.1931 0.788895 52.2741 0.557586 51.2426C0.326907 50.2104 0.210938 49.0972 0.210938 47.9018V47.3585C0.210938 46.1637 0.326277 45.055 0.557586 44.0316C0.788264 43.0089 1.14437 42.0944 1.62589 41.2886H2.78055C2.30595 42.1937 1.9675 43.1468 1.76518 44.1468C1.56287 45.1473 1.46202 46.1954 1.46202 47.2902V47.9688V47.9701Z" fill="#0C3867"/>
<path d="M7.11131 47.3726C7.31678 47.6895 7.54115 48.0177 7.78507 48.3574C8.02898 48.697 8.27605 49.0253 8.52626 49.3422L7.74662 50.4964C7.52855 50.2068 7.31678 49.9196 7.11131 49.6344C6.90584 49.3491 6.71361 49.0752 6.53398 48.8128C6.34805 48.5503 6.19049 48.3125 6.06254 48.1C5.93397 47.8874 5.85392 47.7224 5.82178 47.6041H5.80224C5.7701 47.7312 5.68186 47.9146 5.53753 48.1544C5.39319 48.3941 5.24067 48.6319 5.08058 48.8672C4.90095 49.1296 4.71187 49.3991 4.51271 49.6748C4.31354 49.9512 4.07656 50.27 3.8005 50.6324L3.00195 49.4649C3.54714 48.7767 4.02866 48.1113 4.44527 47.4687C4.58645 47.2512 4.70368 47.0431 4.79633 46.8439C4.88898 46.6446 4.96461 46.441 5.0226 46.2329C5.08058 46.0248 5.12218 45.8072 5.14739 45.5808C5.17323 45.3544 5.18584 45.1007 5.18584 44.8205V41.9143H6.42747V44.8205C6.42747 45.0919 6.43566 45.3366 6.45142 45.5536C6.46717 45.7705 6.50121 45.9767 6.55226 46.1715C6.60331 46.3663 6.67264 46.5611 6.75899 46.7553C6.84534 46.9501 6.96257 47.1557 7.11005 47.3732L7.11131 47.3726ZM10.2488 45.472H11.4803V46.9659H10.2488V53.6468H9.0267V41.0181H10.2488V45.472Z" fill="#0C3867"/>
<path d="M13.0295 47.2917C13.0295 46.1962 12.9286 45.1482 12.7263 44.1482C12.524 43.1483 12.1855 42.1951 11.7109 41.29H12.8656C13.3465 42.0958 13.7026 43.0104 13.9339 44.0331C14.1646 45.0565 14.2805 46.1652 14.2805 47.36V47.9033C14.2805 49.098 14.1652 50.2118 13.9339 51.244C13.7032 52.2762 13.3471 53.1946 12.8656 54.0004H11.7109C12.2051 53.0409 12.5479 52.0536 12.7408 51.0404C12.933 50.0265 13.0295 49.0031 13.0295 47.9716V47.2929V47.2917Z" fill="#0C3867"/>
<path d="M0 0V33.7865H7.24621V25.8539L11.5642 19.0231L17.9324 33.7865H25.6904L16.3221 12.1923L25.6904 0H18.8753L7.32751 15.9632V0H0Z" fill="#0C3867"/>
<path d="M35.3274 11.3438C29.3046 11.3438 24.4219 16.3675 24.4219 22.5652C24.4219 28.7629 29.3046 33.7867 35.3274 33.7867C41.3503 33.7867 46.233 28.7629 46.233 22.5652C46.233 16.3675 41.3503 11.3438 35.3274 11.3438ZM38.954 25.8383C38.954 27.8484 37.3298 29.4783 35.3268 29.4783C33.3238 29.4783 31.6996 27.8484 31.6996 25.8383V19.2118C31.6996 17.2018 33.3238 15.5719 35.3268 15.5719C37.3298 15.5719 38.954 17.2018 38.954 19.2118V25.8383Z" fill="#0C3867"/>
<path d="M132.011 6.07412C131.294 2.7207 130.011 1.39502 126.728 1.39502H123.182C119.899 1.39502 118.654 2.7207 117.899 6.07412L111.599 33.7964H117.975L119.485 26.8562H130.124L131.558 33.7964H137.934L132.011 6.07412H132.011ZM120.729 21.2809L123.446 8.8817C123.71 7.63382 124.087 7.0494 124.955 7.0494C125.823 7.0494 126.2 7.63445 126.465 8.8817L128.993 21.2809H120.73H120.729Z" fill="#0C3867"/>
<path d="M69.917 5.45053C72.4059 8.68947 73.6488 12.5875 73.6469 17.1445C73.6444 21.7021 72.469 26.6444 69.3554 29.321C66.5961 31.6928 63.0105 33.0583 59.4104 33.3904C58.5898 33.4663 57.7616 33.4492 56.9391 33.4783C55.7473 33.5207 54.5561 33.5637 53.3642 33.6061C51.8075 33.6617 50.2507 33.7174 48.6939 33.7731C48.6933 33.7731 48.692 33.7731 48.6914 33.7731L48.7084 0.67783L59.9789 0.636719C64.1355 1.2439 67.4287 2.21286 69.9176 5.45053H69.917ZM66.8532 23.5408C67.2289 23.0651 67.5346 22.5396 67.73 21.9665C68.3898 20.0324 68.5796 17.942 68.3029 15.9181C67.7652 11.9815 65.1099 8.82609 61.1985 7.92417C60.5348 7.77111 59.8541 7.69837 59.1728 7.69837L55.4158 7.69584C55.4151 9.14359 55.4145 10.5907 55.4132 12.0385C55.412 14.9289 55.4101 17.8193 55.4088 20.7098C55.4076 22.8697 55.3943 25.0309 55.405 27.1908C55.4057 27.3572 55.4088 27.5235 55.4113 27.6905C55.4139 27.841 57.8461 27.7784 58.0742 27.7626C58.9856 27.6993 59.8907 27.5475 60.773 27.3091C62.5542 26.8284 64.3435 25.8272 65.761 24.6489C66.1593 24.3181 66.5318 23.9481 66.8526 23.5414L66.8532 23.5408Z" fill="url(#paint0_linear_110_5195)"/>
<path d="M64.5041 1.35679C66.5103 1.87163 68.4263 2.67108 70.1198 3.89999C72.3705 5.53306 74.0792 7.8062 75.0227 10.4297C77.804 18.1662 80.0976 26.0988 80.5363 25.5112C80.9756 24.9237 90.5393 5.38632 90.5393 5.38632H96.7197L103.389 26.3436C103.389 26.3436 104.007 26.9312 104.169 26.3436C104.332 25.756 109.277 1.36944 109.277 1.36944H116.352L109.667 30.1138C109.667 30.1138 109.13 33.6639 106.544 33.6639H99.9813C99.9813 33.6639 99.0542 33.3945 98.3956 31.9012C97.7369 30.4079 92.8164 15.4731 92.8164 15.4731L84.4559 32.7095C84.4559 32.7095 84.1471 33.6646 82.0974 33.6646H76.974C76.974 33.6646 75.8275 33.4198 75.4368 31.8285C75.0466 30.2372 73.314 21.8637 73.314 21.8637C73.314 21.8637 72.31 3.10244 48.707 0.678134C51.6624 0.483962 54.6385 0.420081 57.5989 0.499774C59.8886 0.561757 62.2528 0.779963 64.5028 1.35679H64.5041Z" fill="#83B444"/>
</g>
<defs>
<linearGradient id="paint0_linear_110_5195" x1="50.332" y1="17.2052" x2="72.5963" y2="17.2052" gradientUnits="userSpaceOnUse">
<stop stop-color="#0C3867"/>
<stop offset="1" stop-color="#83B444"/>
</linearGradient>
<clipPath id="clip0_110_5195">
<rect width="138" height="54" fill="white"/>
</clipPath>
</defs>
</svg>
