<svg width="66" height="67" viewBox="0 0 66 67" fill="none" xmlns="http://www.w3.org/2000/svg">
<path d="M54.8202 40.3406L50.1916 44.1631L51.6001 49.8609C51.6774 50.1751 51.6604 50.505 51.5512 50.8096C51.4419 51.1141 51.2453 51.3796 50.9859 51.573C50.7265 51.7663 50.4158 51.8789 50.0928 51.8966C49.7697 51.9143 49.4486 51.8363 49.1697 51.6724L43.9037 48.5737L38.6377 51.6724C38.3587 51.8363 38.0377 51.9143 37.7146 51.8966C37.3916 51.8789 37.0809 51.7663 36.8215 51.573C36.5621 51.3796 36.3655 51.1141 36.2562 50.8096C36.147 50.505 36.1299 50.1751 36.2073 49.8609L37.6158 44.1631L32.9872 40.3406C32.7348 40.1319 32.5505 39.8525 32.4578 39.5383C32.3652 39.2242 32.3684 38.8895 32.4671 38.5772C32.5659 38.2649 32.7556 37.9891 33.012 37.7853C33.2684 37.5815 33.5798 37.4589 33.9063 37.4331L40.0421 36.9581L42.3924 31.5091C42.5194 31.2136 42.7302 30.9618 42.9988 30.7849C43.2674 30.608 43.582 30.5137 43.9037 30.5137C44.2253 30.5137 44.5399 30.608 44.8085 30.7849C45.0772 30.9618 45.288 31.2136 45.415 31.5091L47.7653 36.9581L53.901 37.4331C54.2276 37.4589 54.539 37.5815 54.7954 37.7853C55.0518 37.9891 55.2415 38.2649 55.3402 38.5772C55.439 38.8895 55.4422 39.2242 55.3496 39.5383C55.2569 39.8525 55.0726 40.1319 54.8202 40.3406Z" fill="#FF6C0E"/>
<path d="M32.4998 48.6129C32.4998 49.0492 32.3265 49.4676 32.018 49.7761C31.7096 50.0845 31.2911 50.2579 30.8549 50.2579H14.1625C13.3241 50.2568 12.5203 49.9232 11.9275 49.3304C11.3346 48.7375 11.0011 47.9338 11 47.0954V17.3583C11 16.4858 11.3466 15.649 11.9636 15.032C12.5806 14.415 13.4174 14.0684 14.29 14.0684H25.1242C25.5564 14.067 25.9845 14.1515 26.3838 14.3171C26.783 14.4826 27.1454 14.7259 27.4498 15.0327L33.0653 20.6483H50.4794C51.352 20.6483 52.1888 20.9949 52.8058 21.6119C53.4228 22.2289 53.7694 23.0657 53.7694 23.9382V30.5181C53.7694 30.9544 53.5961 31.3728 53.2876 31.6813C52.9791 31.9898 52.5607 32.1631 52.1244 32.1631C51.6881 32.1631 51.2697 31.9898 50.9612 31.6813C50.6527 31.3728 50.4794 30.9544 50.4794 30.5181V23.9382H14.29V46.9679H30.8549C31.2911 46.9679 31.7096 47.1412 32.018 47.4497C32.3265 47.7582 32.4998 48.1766 32.4998 48.6129ZM14.29 20.6483H28.4141L25.1242 17.3583H14.29V20.6483Z" fill="#111111"/>
</svg>
