<svg width="39" height="38" viewBox="0 0 39 38" fill="none" xmlns="http://www.w3.org/2000/svg">
<path d="M19.0972 0H19.0107C8.54428 0 0.0595703 8.48721 0.0595703 18.9567V19.0433C0.0595703 29.5128 8.54428 38 19.0107 38H19.0972C29.5636 38 38.0484 29.5128 38.0484 19.0433V18.9567C38.0484 8.48721 29.5636 0 19.0972 0Z" fill="url(#paint0_linear_80_4558)"/>
<path d="M24.9322 7.73096H13.1775C9.92999 7.73096 7.28809 10.3736 7.28809 13.6221V24.3792C7.28809 27.6276 9.92999 30.2703 13.1775 30.2703H24.9322C28.1797 30.2703 30.8216 27.6276 30.8216 24.3792V13.6221C30.8216 10.3736 28.1797 7.73096 24.9322 7.73096ZM9.36567 13.6221C9.36567 11.5199 11.0759 9.80915 13.1775 9.80915H24.9322C27.0338 9.80915 28.744 11.5199 28.744 13.6221V24.3792C28.744 26.4813 27.0338 28.1921 24.9322 28.1921H13.1775C11.0759 28.1921 9.36567 26.4813 9.36567 24.3792V13.6221Z" fill="white"/>
<path d="M19.0543 24.479C22.0742 24.479 24.5324 22.0214 24.5324 18.9993C24.5324 15.9772 22.0755 13.5195 19.0543 13.5195C16.0331 13.5195 13.5762 15.9772 13.5762 18.9993C13.5762 22.0214 16.0331 24.479 19.0543 24.479ZM19.0543 15.5991C20.9296 15.5991 22.4548 17.1248 22.4548 19.0006C22.4548 20.8764 20.9296 22.4021 19.0543 22.4021C17.179 22.4021 15.6538 20.8764 15.6538 19.0006C15.6538 17.1248 17.179 15.5991 19.0543 15.5991Z" fill="white"/>
<path d="M25.0395 14.405C25.8527 14.405 26.5155 13.7434 26.5155 12.9286C26.5155 12.1138 25.854 11.4521 25.0395 11.4521C24.2249 11.4521 23.5635 12.1138 23.5635 12.9286C23.5635 13.7434 24.2249 14.405 25.0395 14.405Z" fill="white"/>
<defs>
<linearGradient id="paint0_linear_80_4558" x1="5.60955" y1="32.4484" x2="32.5063" y2="5.56087" gradientUnits="userSpaceOnUse">
<stop stop-color="#FAAD4F"/>
<stop offset="0.35" stop-color="#DD2A7B"/>
<stop offset="0.62" stop-color="#9537B0"/>
<stop offset="1" stop-color="#515BD4"/>
</linearGradient>
</defs>
</svg>
