<svg width="25" height="18" viewBox="0 0 25 18" fill="none" xmlns="http://www.w3.org/2000/svg">
<path d="M24.0818 8.39027C23.9349 8.21229 21.6307 5.46018 18.3721 3.51555L20.3683 1.51917C20.6012 1.28624 20.6012 0.907584 20.3683 0.674658C20.1354 0.441732 19.7567 0.441732 19.5238 0.674658L17.2792 2.9183C15.7383 2.14666 14.0385 1.60197 12.2731 1.60197C6.125 1.60197 0.692445 8.11195 0.464297 8.39027C0.282734 8.61125 0.282734 8.92779 0.464297 9.14878C0.61122 9.32675 2.9154 12.0789 6.17397 14.0235L3.98242 16.215C3.7495 16.448 3.7495 16.8266 3.98242 17.0595C4.09948 17.1754 4.25238 17.2339 4.40527 17.2339C4.55817 17.2339 4.71106 17.1754 4.82812 17.0595L7.26813 14.6207C8.80903 15.3924 10.5088 15.9371 12.2743 15.9371C18.4223 15.9371 23.8549 9.42709 24.083 9.14878C24.2634 8.92779 24.2634 8.61006 24.0818 8.39027ZM1.7209 8.76893C2.96437 7.39884 7.49867 2.79646 12.2731 2.79646C13.6921 2.79646 15.0861 3.20856 16.3821 3.81536L14.3419 5.85436C13.7578 5.43748 13.0459 5.18545 12.2731 5.18545C10.2974 5.18545 8.68958 6.79323 8.68958 8.76893C8.68958 9.54057 8.94042 10.2525 9.35849 10.839L7.05193 13.1455C4.50168 11.6811 2.48657 9.61343 1.7209 8.76893ZM14.662 8.76893C14.662 10.0865 13.5906 11.1579 12.2731 11.1579C11.8311 11.1579 11.4226 11.0301 11.0666 10.8199L14.324 7.56249C14.533 7.91845 14.662 8.32696 14.662 8.76893ZM9.88407 8.76893C9.88407 7.4514 10.9555 6.37994 12.2731 6.37994C12.715 6.37994 13.1235 6.50775 13.4795 6.71798L10.2221 9.97536C10.0131 9.61941 9.88407 9.21089 9.88407 8.76893ZM12.2731 14.7414C10.854 14.7414 9.46002 14.3293 8.164 13.7225L10.2042 11.6835C10.7895 12.1004 11.5014 12.3524 12.2743 12.3524C14.2499 12.3524 15.8577 10.7446 15.8577 8.76893C15.8577 7.99728 15.6069 7.28537 15.1888 6.69887L17.4954 4.3923C20.0456 5.85795 22.0607 7.92442 22.8264 8.76893C21.5817 10.139 17.0486 14.7414 12.2731 14.7414Z" fill="#5FCEBE"/>
</svg>
