<svg width="19" height="19" viewBox="0 0 19 19" fill="none" xmlns="http://www.w3.org/2000/svg">
<path d="M9.79118 15.0707C9.69792 15.0707 9.60466 15.0552 9.51139 15.0086C9.24715 14.8998 9.07617 14.6355 9.07617 14.3402L9.10726 4.29899C9.10726 3.9104 9.43368 3.58398 9.82227 3.58398C10.2109 3.58398 10.5373 3.9104 10.5373 4.29899L10.5062 12.6459L13.2775 10.03C13.5573 9.75026 14.0236 9.76581 14.2878 10.0456C14.5676 10.3254 14.5521 10.7917 14.2723 11.0559L10.2886 14.8687C10.1642 14.993 9.9777 15.0707 9.79118 15.0707Z" fill="#111111" stroke="#111111" stroke-width="0.2"/>
<path d="M9.78426 15.0693C9.59773 15.0693 9.42675 15.0072 9.28686 14.8673L5.38086 11.1012C5.10107 10.8214 5.08553 10.3706 5.36532 10.0908C5.6451 9.81103 6.09587 9.79549 6.37565 10.0753L10.2817 13.8414C10.5614 14.1212 10.577 14.5719 10.2972 14.8517C10.1573 14.9916 9.97078 15.0693 9.78426 15.0693Z" fill="#111111" stroke="#111111" stroke-width="0.2"/>
<path d="M16.2852 18.8331H3.38395C2.99536 18.8331 2.66895 18.5067 2.66895 18.1181V14.5275C2.66895 14.1389 2.99536 13.8125 3.38395 13.8125C3.77254 13.8125 4.09896 14.1389 4.09896 14.5275V17.3875H15.5702V14.5275C15.5702 14.1389 15.8966 13.8125 16.2852 13.8125C16.6738 13.8125 17.0002 14.1389 17.0002 14.5275V18.1181C17.0002 18.5067 16.6893 18.8331 16.2852 18.8331Z" fill="#111111" stroke="#111111" stroke-width="0.2"/>
</svg>
