<svg width="66" height="67" viewBox="0 0 66 67" fill="none" xmlns="http://www.w3.org/2000/svg">
<path d="M51.3071 10.7363H24.4357C21.9725 10.7363 19.9571 12.787 19.9571 15.2935V42.6363C19.9571 45.1428 21.9725 47.1935 24.4357 47.1935H51.3071C53.7704 47.1935 55.7857 45.1428 55.7857 42.6363V15.2935C55.7857 12.787 53.7704 10.7363 51.3071 10.7363ZM52.0929 43.422H23.65V14.5078H52.0929V43.422ZM14.6929 19.8506H11V51.7506C11 54.257 13.0154 56.3078 15.4786 56.3078H46.8286V52.5363H14.6929V19.8506Z" fill="black"/>
<path d="M40.7496 31.6347V25.9775C40.7496 24.9404 39.901 24.0918 38.8639 24.0918H35.0924V33.5204H38.8639C39.901 33.5204 40.7496 32.6718 40.7496 31.6347ZM36.9781 25.9775H38.8639V31.6347H36.9781V25.9775ZM44.521 29.7489H47.1462V27.8632H44.521V25.9775H47.1462V24.0918H42.6353V33.5204H44.521V29.7489ZM30.1748 29.7489H32.0605C33.0976 29.7489 33.9462 28.9004 33.9462 27.8632V25.9775C33.9462 24.9404 33.0976 24.0918 32.0605 24.0918H28.2891V33.5204H30.1748V29.7489ZM30.1748 25.9775H32.0605V27.8632H30.1748V25.9775Z" fill="#FF6C0E"/>
</svg>
