<svg width="66" height="67" viewBox="0 0 66 67" fill="none" xmlns="http://www.w3.org/2000/svg">
<path d="M56.3571 21.5655H51.8964V14.8676H45.2052V10.4023H56.3571V21.5655ZM56.3571 56.7595V45.5963H51.8964V52.2942H45.2052V56.7595H56.3571ZM10 56.7595H21.152V52.2942H14.4608V45.5963H10V56.7595ZM10 10.4023V21.5655H14.4608V14.8676H21.152V10.4023H10Z" fill="#FF6C0E"/>
<path d="M27.5993 21.3021V28H20.9081V21.3021H27.5993ZM30.9448 17.9531H17.5625V31.3489H30.9448V17.9531ZM27.5993 39.1631V45.861H20.9081V39.1631H27.5993ZM30.9448 35.8142H17.5625V49.21H30.9448V35.8142ZM45.4424 21.3021V28H38.7512V21.3021H45.4424ZM48.788 17.9531H35.4056V31.3489H48.788V17.9531ZM35.4056 35.8142H38.7512V39.1631H35.4056V35.8142ZM38.7512 39.1631H42.0968V42.5121H38.7512V39.1631ZM42.0968 35.8142H45.4424V39.1631H42.0968V35.8142ZM35.4056 42.5121H38.7512V45.861H35.4056V42.5121ZM38.7512 45.861H42.0968V49.21H38.7512V45.861ZM42.0968 42.5121H45.4424V45.861H42.0968V42.5121ZM45.4424 39.1631H48.788V42.5121H45.4424V39.1631ZM45.4424 45.861H48.788V49.21H45.4424V45.861Z" fill="#111111"/>
</svg>
