<svg width="166" height="52" viewBox="0 0 166 52" fill="none" xmlns="http://www.w3.org/2000/svg">
<path d="M112.62 0.860352C110.621 0.873908 109.164 2.33525 109.153 4.27918C109.161 6.1689 110.618 7.64108 112.62 7.65193C114.67 7.63566 116.072 6.17974 116.086 4.27918C116.086 3.29773 115.72 2.45454 115.112 1.84452C114.502 1.23721 113.65 0.860352 112.62 0.860352Z" fill="#1A75BB"/>
<path d="M115.697 10.4443H109.575V34.1403H115.697V10.4443Z" fill="#1A75BB"/>
<path d="M60.9472 10.4658C57.6029 10.4658 54.5759 11.8214 52.3817 14.0121C50.1901 16.2027 48.834 19.2284 48.834 22.5741C48.834 25.9197 50.1901 28.9427 52.3817 31.1361C54.5732 33.3267 57.6002 34.6823 60.9472 34.6823C64.2914 34.6823 67.3184 33.3267 69.5127 31.1361C71.7042 28.9454 73.0604 25.9197 73.0604 22.5741C73.0604 19.2312 71.7042 16.2054 69.5127 14.0121C67.3211 11.8214 64.2942 10.4658 60.9472 10.4658ZM60.9472 29.2003C57.2855 29.2003 54.3156 26.2315 54.3156 22.5714C54.3156 18.9112 57.2855 15.9425 60.9472 15.9425C64.6088 15.9425 67.5788 18.9112 67.5788 22.5714C67.5788 26.2315 64.6088 29.2003 60.9472 29.2003Z" fill="#1A75BB"/>
<path d="M47.6037 26.4952L47.5947 26.4922L47.6037 26.4952Z" fill="#1A75BB"/>
<path d="M81.6821 34.1376V19.1094C81.6821 17.3905 83.0708 16.0024 84.7904 16.0024C85.6475 16.0024 86.4259 16.3494 86.9901 16.9106C87.4268 17.3498 87.7251 17.9111 87.839 18.5428C87.8228 18.7461 87.8065 18.9549 87.8065 19.1745V34.1349H93.5051V19.1745C93.5051 18.9711 93.4888 18.7787 93.4752 18.5916C93.722 17.1221 94.986 16.0024 96.5293 16.0024C97.3864 16.0024 98.1648 16.3467 98.729 16.9106C99.2931 17.4773 99.6376 18.2445 99.6376 19.1094V34.1376H105.244V19.1772C105.244 16.7724 104.268 14.5898 102.689 13.0119C101.116 11.4394 98.9351 10.4634 96.532 10.4634C94.2672 10.4634 92.2113 11.3364 90.6598 12.7516C89.1138 11.3364 87.0552 10.4634 84.7931 10.4634C79.9788 10.4634 76.0703 14.3621 76.0703 19.1745V34.1349H81.6848L81.6821 34.1376Z" fill="#1A75BB"/>
<path d="M38.4835 29.1788C34.8219 29.1788 31.8519 26.2128 31.8519 22.5499C31.8519 18.8898 34.8192 15.921 38.4835 15.921C40.3876 15.921 42.0882 16.7371 43.2952 18.0195L47.5535 14.5681C45.3321 12.0467 42.1072 10.439 38.4862 10.439C35.1392 10.439 32.115 11.7946 29.9207 13.9852C27.7265 16.1786 26.373 19.2016 26.373 22.5472C26.373 25.8928 27.7292 28.9158 29.9207 31.1092C32.115 33.3026 35.1392 34.6555 38.4862 34.6555C42.1316 34.6555 45.3728 33.0287 47.5942 30.4775L43.4254 26.9312C42.2157 28.295 40.4581 29.1734 38.4862 29.1734L38.4835 29.1788Z" fill="#1A75BB"/>
<path d="M131.435 29.1788C127.773 29.1788 124.803 26.2128 124.803 22.5499C124.803 18.8898 127.77 15.921 131.435 15.921C133.339 15.921 135.039 16.7371 136.246 18.0195L140.505 14.5681C138.283 12.0467 135.058 10.439 131.437 10.439C128.09 10.439 125.066 11.7946 122.872 13.9852C120.678 16.1786 119.324 19.2016 119.324 22.5472C119.324 25.8928 120.68 28.9158 122.872 31.1092C125.066 33.3026 128.09 34.6555 131.437 34.6555C135.083 34.6555 138.324 33.0287 140.545 30.4775L136.377 26.9312C135.167 28.295 133.409 29.1734 131.437 29.1734L131.435 29.1788Z" fill="#1A75BB"/>
<path d="M149.745 23.0464L157.952 16.45C156.754 15.6421 155.297 15.1785 153.743 15.2056C149.691 15.2734 146.45 18.619 146.515 22.6804C146.582 26.7309 149.935 29.9762 153.992 29.9058C157.782 29.8515 160.855 26.9126 161.194 23.2335L166 23.4178C165.577 29.6373 160.437 34.6097 154.066 34.7154C147.347 34.8293 141.801 29.4747 141.681 22.7536C141.573 16.0244 146.935 10.4854 153.653 10.3715C156.77 10.3173 159.637 11.4424 161.823 13.3321C163.014 14.3732 164.014 15.634 164.728 17.0655L160.838 20.2023L157.255 23.0789L152.707 26.7309L149.742 23.0518L149.745 23.0464Z" fill="#1A75BB"/>
<path d="M12.3127 29.9027C8.2551 29.9759 4.90269 26.7279 4.83488 22.6773C4.76707 18.6159 8.01099 15.2703 12.0632 15.2025C13.6173 15.1754 15.0739 15.6417 16.2727 16.447L8.06524 23.0433L11.0298 26.7225L15.5783 23.0705L19.1613 20.1939L23.0508 17.057C22.3347 15.6255 21.3366 14.3648 20.1459 13.3237C17.9625 11.434 15.0928 10.3115 11.9764 10.363C5.258 10.4823 -0.104242 16.0186 0.0015385 22.7505C0.12088 29.4716 5.66484 34.829 12.386 34.7124C18.7572 34.6066 23.8997 29.6343 24.3201 23.4148H19.4868C19.0609 27.0071 16.0367 29.8485 12.31 29.9027H12.3127Z" fill="#1A75BB"/>
<path d="M41.7484 43.6748L43.7935 48.6662H43.8749L45.92 43.6748H47.8132V51.0358H46.3268V46.2152H46.2644L44.3414 51.0059H43.3243L41.4013 46.1962H41.3389V51.0358H39.8525V43.6748H41.7457H41.7484Z" fill="#F3F3F3"/>
<path d="M51.6169 51.0387H50.0898V43.6777H51.6169V51.0387Z" fill="#F3F3F3"/>
<path d="M57.214 44.9281C56.0695 44.9335 55.3127 45.8065 55.3127 47.3573C55.3127 48.9082 56.0803 49.7839 57.2059 49.7866C58.044 49.7812 58.676 49.323 58.8224 48.5259L60.3685 48.5367C60.2003 49.9005 59.0557 51.1395 57.1842 51.1395C55.2151 51.1395 53.7559 49.7513 53.7559 47.3573C53.7559 44.9633 55.2422 43.5752 57.1842 43.5752C58.8821 43.5752 60.165 44.5458 60.3685 46.2403H58.8224C58.7004 45.427 58.0739 44.9335 57.214 44.9281Z" fill="#F3F3F3"/>
<path d="M62.4736 43.6748H67.4182V44.9355H64.0007V46.7249H67.1632V47.9856H64.0007V49.775H67.429V51.0358H62.4736V43.6748Z" fill="#F3F3F3"/>
<path d="M76.4045 44.9281C75.2599 44.9335 74.5031 45.8065 74.5031 47.3573C74.5031 48.9082 75.2707 49.7839 76.3963 49.7866C77.2344 49.7812 77.8664 49.323 78.0129 48.5259L79.5589 48.5367C79.3907 49.9005 78.2461 51.1395 76.3746 51.1395C74.4055 51.1395 72.9463 49.7513 72.9463 47.3573C72.9463 44.9633 74.4326 43.5752 76.3746 43.5752C78.0725 43.5752 79.3555 44.5458 79.5589 46.2403H78.0129C77.8908 45.427 77.2643 44.9335 76.4045 44.9281Z" fill="#F3F3F3"/>
<path d="M81.6668 43.6753H84.5554C86.2289 43.6753 87.189 44.6161 87.189 46.0747C87.189 47.0806 86.7252 47.8126 85.8871 48.1759L87.4548 51.039H85.7651L84.3547 48.4253H83.1911V51.039H81.6641V43.678L81.6668 43.6753ZM84.2706 47.1836C85.1765 47.1836 85.6186 46.8122 85.6132 46.0747C85.6186 45.3318 85.1765 44.9306 84.2706 44.9252H83.1911V47.1836H84.2706Z" fill="#F3F3F3"/>
<path d="M89.2852 43.6748H94.2297V44.9355H90.8122V46.7249H93.9747V47.9856H90.8122V49.775H94.2405V51.0358H89.2852V43.6748Z" fill="#F3F3F3"/>
<path d="M96.042 51.0387L98.5943 43.6777H100.558L103.102 51.0387H101.464L100.911 49.3415H98.2444L97.6911 51.0387H96.042ZM100.523 48.1512L99.6033 45.3343H99.5517L98.6322 48.1512H100.525H100.523Z" fill="#F3F3F3"/>
<path d="M103.785 43.6753H109.817V44.936H107.558V51.0362H106.042V44.936H103.782V43.6753H103.785Z" fill="#F3F3F3"/>
<path d="M114.783 51.1395C112.82 51.1395 111.336 49.7513 111.336 47.3573C111.336 44.9633 112.822 43.5752 114.783 43.5752C116.744 43.5752 118.222 44.9525 118.222 47.3573C118.222 49.7622 116.733 51.1395 114.783 51.1395ZM114.783 49.7866C115.917 49.7812 116.671 48.9271 116.666 47.3573C116.671 45.7821 115.917 44.9308 114.783 44.9281C113.639 44.9335 112.89 45.7821 112.89 47.3573C112.89 48.9326 113.639 49.7839 114.783 49.7866Z" fill="#F3F3F3"/>
<path d="M120.357 43.6753H123.246C124.92 43.6753 125.88 44.6161 125.88 46.0747C125.88 47.0806 125.416 47.8126 124.578 48.1759L126.145 51.039H124.456L123.048 48.4253H121.884V51.039H120.357V43.678V43.6753ZM122.961 47.1836C123.867 47.1836 124.309 46.8122 124.304 46.0747C124.309 45.3318 123.867 44.9306 122.961 44.9252H121.882V47.1836H122.961Z" fill="#F3F3F3"/>
</svg>
