<svg width="66" height="67" viewBox="0 0 66 67" fill="none" xmlns="http://www.w3.org/2000/svg">
<path d="M16 16.6892C16 15.5523 16.4553 14.4619 17.2657 13.6579C18.0761 12.854 19.1753 12.4023 20.3214 12.4023H37.3759C37.949 12.4025 38.4985 12.6284 38.9036 13.0304L49.9383 23.7475C50.3436 24.1494 50.5713 24.6945 50.5714 25.2629V50.9841C50.5714 52.121 50.1161 53.2114 49.3057 54.0153C48.4953 54.8193 47.3961 55.2709 46.25 55.2709H20.3214C19.1753 55.2709 18.0761 54.8193 17.2657 54.0153C16.4553 53.2114 16 52.121 16 50.9841V16.6892ZM47.084 25.2629L37.6071 16.7192V25.2629H47.084ZM34.15 15.8318H19.4571V51.8414H47.1143V28.6924H36.3107C35.7377 28.6924 35.1881 28.4666 34.7829 28.0646C34.3776 27.6626 34.15 27.1174 34.15 26.549V15.8318Z" fill="#111111"/>
<path d="M23.8594 36.2357C23.8594 35.7494 24.1077 35.2831 24.5498 34.9393C24.9918 34.5955 25.5914 34.4023 26.2165 34.4023H40.3594C40.9845 34.4023 41.5841 34.5955 42.0261 34.9393C42.4682 35.2831 42.7165 35.7494 42.7165 36.2357C42.7165 36.7219 42.4682 37.1882 42.0261 37.532C41.5841 37.8759 40.9845 38.069 40.3594 38.069H26.2165C25.5914 38.069 24.9918 37.8759 24.5498 37.532C24.1077 37.1882 23.8594 36.7219 23.8594 36.2357ZM23.8594 43.569C23.8594 43.0828 24.1077 42.6165 24.5498 42.2726C24.9918 41.9288 25.5914 41.7357 26.2165 41.7357H40.3594C40.9845 41.7357 41.5841 41.9288 42.0261 42.2726C42.4682 42.6165 42.7165 43.0828 42.7165 43.569C42.7165 44.0552 42.4682 44.5216 42.0261 44.8654C41.5841 45.2092 40.9845 45.4023 40.3594 45.4023H26.2165C25.5914 45.4023 24.9918 45.2092 24.5498 44.8654C24.1077 44.5216 23.8594 44.0552 23.8594 43.569Z" fill="#FF6C0E"/>
</svg>
