<svg width="36" height="34" viewBox="0 0 36 34" fill="none" xmlns="http://www.w3.org/2000/svg">
<path d="M29.4987 18.5404C28.6511 17.6973 28.6511 16.3263 29.4987 15.4832L34.1167 10.8895C36.6278 8.39954 36.6278 4.35736 34.1167 1.86744C31.6136 -0.62248 27.558 -0.62248 25.0469 1.86744L13.7196 13.1351C11.565 15.2783 11.565 18.7453 13.7196 20.8885L25.0232 32.1326C27.5263 34.6225 31.5899 34.6225 34.093 32.1326C35.3445 30.8876 35.9703 29.2487 35.9703 27.6176C35.9703 25.9866 35.3445 24.3476 34.093 23.1027L29.4987 18.5404ZM32.1443 30.1942C31.4552 30.8797 30.5363 31.2579 29.5541 31.2579C28.5719 31.2579 27.6609 30.8797 26.9718 30.1942L19.9457 23.2051L17.997 21.2667L15.6682 18.9502C15.1454 18.4301 14.8602 17.7446 14.8602 17.0118C14.8602 16.279 15.1454 15.5935 15.6682 15.0735L26.9955 3.80579C27.6847 3.1124 28.6036 2.73418 29.5858 2.73418C30.568 2.73418 31.479 3.1124 32.176 3.80579C32.8731 4.49919 33.2454 5.40533 33.2454 6.37451C33.2454 7.34368 32.8652 8.26558 32.176 8.9511L27.55 13.5448C25.6331 15.4596 25.6331 18.5641 27.55 20.4788L32.1443 25.041C33.5702 26.4593 33.5702 28.768 32.1443 30.1942ZM16.0484 23.2051L17.997 25.1435L10.9788 32.1326C9.72727 33.3775 8.07965 34 6.43996 34C4.80026 34 3.15265 33.3775 1.90109 32.1326C-0.602013 29.6348 -0.602013 25.6005 1.90109 23.1027L6.49541 18.5404C7.34298 17.6973 7.34298 16.3263 6.49541 15.4832L1.87733 10.8895C0.625777 9.6445 0 8.01344 0 6.38239C0 4.75133 0.625777 3.1124 1.87733 1.86744C4.38044 -0.62248 8.44403 -0.62248 10.9471 1.86744L17.997 8.88019L16.0484 10.8185L8.99851 3.80579C8.30937 3.1124 7.39051 2.73418 6.41619 2.73418C5.44188 2.73418 4.5151 3.1124 3.82595 3.80579C3.13681 4.49131 2.75659 5.40533 2.75659 6.37451C2.75659 7.34368 3.13681 8.26558 3.82595 8.9511L8.44403 13.5448C10.3689 15.4596 10.3689 18.5641 8.44403 20.4788L3.84972 25.041C2.4239 26.4593 2.4239 28.768 3.84972 30.1942C4.54678 30.8797 5.46565 31.2579 6.43996 31.2579C7.41427 31.2579 8.33313 30.8797 9.0302 30.1942L16.0484 23.2051Z" fill="white"/>
</svg>
