<svg width="38" height="38" viewBox="0 0 38 38" fill="none" xmlns="http://www.w3.org/2000/svg">
<path d="M37.9288 19C37.9288 8.5364 29.4489 0.0539551 18.9883 0.0539551C8.5278 0.0539551 0.0478516 8.5364 0.0478516 19C0.0478516 29.4636 8.5278 37.9461 18.9883 37.9461C29.4489 37.9461 37.9288 29.4636 37.9288 19Z" fill="#FF0209"/>
<path d="M27.0286 27.3914C26.4642 27.4526 25.8866 27.4633 25.3329 27.462C21.0141 27.458 16.6952 27.454 12.3776 27.4513C11.0188 27.4513 9.53877 27.4074 8.48867 26.5433C7.30547 25.5675 7.05925 23.8754 6.96342 22.3444C6.83033 20.2462 6.81968 18.1414 6.92882 16.0419C6.98871 14.8889 7.09385 13.7081 7.59029 12.6643C7.94698 11.9148 8.5419 11.2411 9.3032 10.887C10.1883 10.4756 11.1146 10.5488 12.0675 10.5475C14.3488 10.5448 16.63 10.5435 18.9112 10.5408C21.2829 10.5382 23.656 10.5368 26.0277 10.5342C27.1483 10.5342 28.3515 10.5568 29.2659 11.2052C30.4464 12.0412 30.7671 13.6322 30.9149 15.0713C31.1877 17.722 31.1917 20.4006 30.9255 23.0513C30.8151 24.1443 30.6314 25.2999 29.9113 26.1293C29.198 26.9521 28.1399 27.2689 27.0299 27.3901L27.0286 27.3914Z" fill="white"/>
<path d="M22.8504 19L16.4141 15.283V22.7171L22.8504 19Z" fill="#FF0209"/>
</svg>
