<svg width="28" height="27" viewBox="0 0 28 27" fill="none" xmlns="http://www.w3.org/2000/svg">
<path d="M22.9434 14.678C22.2842 14.0333 22.2842 12.9848 22.9434 12.3401L26.5352 8.82723C28.4883 6.92317 28.4883 3.8321 26.5352 1.92804C24.5884 0.0239862 21.434 0.0239862 19.4809 1.92804L10.6708 10.5445C8.99499 12.1834 8.99499 14.8346 10.6708 16.4736L19.4625 25.072C21.4093 26.976 24.5699 26.976 26.5167 25.072C27.4902 24.1199 27.9769 22.8666 27.9769 21.6194C27.9769 20.3721 27.4902 19.1188 26.5167 18.1667L22.9434 14.678ZM25.0012 23.5897C24.4652 24.1139 23.7505 24.4031 22.9865 24.4031C22.2226 24.4031 21.5141 24.1139 20.9781 23.5897L15.5133 18.2451L13.9977 16.7628L12.1864 14.9913C11.7797 14.5936 11.558 14.0694 11.558 13.509C11.558 12.9487 11.7797 12.4244 12.1864 12.0268L20.9965 3.41031C21.5325 2.88007 22.2472 2.59085 23.0112 2.59085C23.7751 2.59085 24.4836 2.88007 25.0258 3.41031C25.568 3.94056 25.8575 4.63349 25.8575 5.37462C25.8575 6.11576 25.5618 6.82074 25.0258 7.34496L21.4278 10.8578C19.9368 12.322 19.9368 14.6961 21.4278 16.1603L25.0012 19.649C26.1101 20.7336 26.1101 22.4991 25.0012 23.5897ZM12.4821 18.2451L13.9977 19.7273L8.53908 25.072C7.56565 26.024 6.28417 26.5 5.00886 26.5C3.73354 26.5 2.45206 26.024 1.47863 25.072C-0.468233 23.1619 -0.468233 20.0768 1.47863 18.1667L5.05198 14.678C5.71121 14.0333 5.71121 12.9848 5.05198 12.3401L1.46015 8.82723C0.486715 7.8752 0 6.62793 0 5.38065C0 4.13337 0.486715 2.88007 1.46015 1.92804C3.40701 0.0239862 6.56758 0.0239862 8.51444 1.92804L13.9977 7.29073L12.4821 8.773L6.99885 3.41031C6.46284 2.88007 5.74817 2.59085 4.99037 2.59085C4.23258 2.59085 3.51174 2.88007 2.97574 3.41031C2.43974 3.93453 2.14401 4.63349 2.14401 5.37462C2.14401 6.11576 2.43974 6.82074 2.97574 7.34496L6.56758 10.8578C8.06469 12.322 8.06469 14.6961 6.56758 16.1603L2.99422 19.649C1.88525 20.7336 1.88525 22.4991 2.99422 23.5897C3.53639 24.1139 4.25106 24.4031 5.00886 24.4031C5.76665 24.4031 6.48132 24.1139 7.02349 23.5897L12.4821 18.2451Z" fill="#323232"/>
</svg>
