<svg width="25" height="24" viewBox="0 0 25 24" fill="none" xmlns="http://www.w3.org/2000/svg">
<path fill-rule="evenodd" clip-rule="evenodd" d="M9.6842 9.79038L11.13 8.30624C11.3473 8.08354 11.4018 7.76663 11.271 7.48397L9.87262 4.45802C9.73403 4.15901 9.42881 3.99238 9.10259 4.03831L5.74603 4.50863C5.42524 4.55379 5.18 4.79051 5.12315 5.10975C3.85015 12.3304 12.7005 21.1814 19.9211 19.9074C20.2403 19.8514 20.477 19.6061 20.5222 19.2853L20.9925 15.9284C21.0384 15.6022 20.8718 15.2961 20.5728 15.1583L17.5463 13.7598C17.2637 13.6298 16.9468 13.6835 16.7241 13.9008L15.2401 15.3468C15.0268 15.5547 14.7286 15.6138 14.4522 15.5025C12.5353 14.7316 10.2991 12.4961 9.52915 10.579C9.41703 10.3018 9.47631 10.0037 9.6842 9.79038Z" fill="black"/>
</svg>
