<svg width="13" height="12" viewBox="0 0 13 12" fill="none" xmlns="http://www.w3.org/2000/svg">
<path d="M6.56619 9.06059C6.50075 9.06059 6.43531 9.04968 6.36986 9.01696C6.18444 8.94061 6.06445 8.75518 6.06445 8.54794L6.08627 1.50174C6.08627 1.22906 6.31532 1 6.58801 1C6.8607 1 7.08975 1.22906 7.08975 1.50174L7.06794 7.35903L9.01265 5.52339C9.20898 5.32706 9.5362 5.33797 9.72163 5.5343C9.91796 5.73063 9.90706 6.05786 9.71072 6.24328L6.91523 8.91879C6.82797 9.00605 6.69708 9.06059 6.56619 9.06059Z" fill="#787878"/>
<path d="M6.56312 9.05727C6.43223 9.05727 6.31225 9.01364 6.21408 8.91548L3.47313 6.27269C3.2768 6.07636 3.26589 5.76004 3.46222 5.56371C3.65856 5.36737 3.97487 5.35647 4.17121 5.5528L6.91216 8.19559C7.10849 8.39192 7.1194 8.70824 6.92307 8.90457C6.8249 9.00274 6.69401 9.05727 6.56312 9.05727Z" fill="#787878"/>
<path d="M11.1213 11.6991H2.06815C1.79546 11.6991 1.56641 11.4701 1.56641 11.1974V8.67777C1.56641 8.40508 1.79546 8.17603 2.06815 8.17603C2.34083 8.17603 2.56989 8.40508 2.56989 8.67777V10.6847H10.6196V8.67777C10.6196 8.40508 10.8486 8.17603 11.1213 8.17603C11.394 8.17603 11.6231 8.40508 11.6231 8.67777V11.1974C11.6231 11.4701 11.4049 11.6991 11.1213 11.6991Z" fill="#787878"/>
</svg>
