<svg width="28" height="26" viewBox="0 0 28 26" fill="none" xmlns="http://www.w3.org/2000/svg">
<path d="M22.9434 14.178C22.2842 13.5333 22.2842 12.4848 22.9434 11.8401L26.5352 8.32723C28.4883 6.42317 28.4883 3.3321 26.5352 1.42804C24.5884 -0.476014 21.434 -0.476014 19.4809 1.42804L10.6708 10.0445C8.99499 11.6834 8.99499 14.3346 10.6708 15.9736L19.4625 24.572C21.4093 26.476 24.5699 26.476 26.5167 24.572C27.4902 23.6199 27.9769 22.3666 27.9769 21.1194C27.9769 19.8721 27.4902 18.6188 26.5167 17.6667L22.9434 14.178ZM25.0012 23.0897C24.4652 23.6139 23.7505 23.9031 22.9865 23.9031C22.2226 23.9031 21.5141 23.6139 20.9781 23.0897L15.5133 17.7451L13.9977 16.2628L12.1864 14.4913C11.7797 14.0936 11.558 13.5694 11.558 13.009C11.558 12.4487 11.7797 11.9244 12.1864 11.5268L20.9965 2.91031C21.5325 2.38007 22.2472 2.09085 23.0112 2.09085C23.7751 2.09085 24.4836 2.38007 25.0258 2.91031C25.568 3.44056 25.8575 4.13349 25.8575 4.87462C25.8575 5.61576 25.5618 6.32074 25.0258 6.84496L21.4278 10.3578C19.9368 11.822 19.9368 14.1961 21.4278 15.6603L25.0012 19.149C26.1101 20.2336 26.1101 21.9991 25.0012 23.0897ZM12.4821 17.7451L13.9977 19.2273L8.53908 24.572C7.56565 25.524 6.28417 26 5.00886 26C3.73354 26 2.45206 25.524 1.47863 24.572C-0.468233 22.6619 -0.468233 19.5768 1.47863 17.6667L5.05198 14.178C5.71121 13.5333 5.71121 12.4848 5.05198 11.8401L1.46015 8.32723C0.486715 7.3752 0 6.12793 0 4.88065C0 3.63337 0.486715 2.38007 1.46015 1.42804C3.40701 -0.476014 6.56758 -0.476014 8.51444 1.42804L13.9977 6.79073L12.4821 8.273L6.99885 2.91031C6.46284 2.38007 5.74817 2.09085 4.99037 2.09085C4.23258 2.09085 3.51174 2.38007 2.97574 2.91031C2.43974 3.43453 2.14401 4.13349 2.14401 4.87462C2.14401 5.61576 2.43974 6.32074 2.97574 6.84496L6.56758 10.3578C8.06469 11.822 8.06469 14.1961 6.56758 15.6603L2.99422 19.149C1.88525 20.2336 1.88525 21.9991 2.99422 23.0897C3.53639 23.6139 4.25106 23.9031 5.00886 23.9031C5.76665 23.9031 6.48132 23.6139 7.02349 23.0897L12.4821 17.7451Z" fill="#1E96E1"/>
</svg>
