<svg width="25" height="24" viewBox="0 0 25 24" fill="none" xmlns="http://www.w3.org/2000/svg">
<path fill-rule="evenodd" clip-rule="evenodd" d="M4.83647 6.32088C5.1555 6.13319 5.53557 6.03076 5.92853 6.03076H20.0714C20.4643 6.03076 20.8444 6.1332 21.1634 6.32088L13.4129 11.8904C13.1743 12.0623 12.8255 12.0623 12.5869 11.8904L4.83647 6.32088ZM21.9212 7.21257C21.9727 7.36313 22 7.52057 22 7.68076V15.3808C22 15.8187 21.7967 16.2381 21.4351 16.5474C21.0735 16.8568 20.5833 17.0308 20.0714 17.0308H5.92857C5.41669 17.0308 4.92652 16.8568 4.56491 16.5474C4.20331 16.2381 4 15.8187 4 15.3808V7.68076C4 7.52057 4.02732 7.36313 4.07875 7.21257L11.7593 12.7325C12.4769 13.2481 13.5231 13.2481 14.2406 12.7325L21.9212 7.21257Z" fill="black"/>
</svg>
