<svg width="18" height="19" viewBox="0 0 18 19" fill="none" xmlns="http://www.w3.org/2000/svg">
<path fill-rule="evenodd" clip-rule="evenodd" d="M18 9.5C18 4.52912 13.9709 0.5 9 0.5C4.02912 0.5 0 4.52912 0 9.5C0 14.4709 4.02912 18.5 9 18.5C13.9709 18.5 18 14.4709 18 9.5ZM1.31225 10.1429C1.44082 11.7058 2.03546 13.1362 2.95716 14.2958C3.5518 13.9302 4.21716 13.6192 4.93636 13.3725C4.70012 12.3825 4.55225 11.2921 4.51127 10.143L1.31225 10.1429ZM5.79785 8.85714H12.2024C12.163 7.82053 12.0296 6.84982 11.8247 5.97714C10.9255 6.17884 9.9829 6.28331 9.0315 6.28571C8.05917 6.28813 7.09488 6.18366 6.17556 5.97714C5.97065 6.84982 5.83722 7.82053 5.79785 8.85714ZM13.4889 8.85714C13.4479 7.70804 13.3001 6.61753 13.0638 5.62763C13.783 5.38094 14.4484 5.06996 15.043 4.70433C15.9647 5.86388 16.5593 7.29427 16.6879 8.85729L13.4889 8.85714ZM5.79785 10.1429C5.83723 11.1795 5.97062 12.1502 6.17552 13.0229C7.07472 12.8212 8.0173 12.7167 8.96871 12.7143C9.94104 12.7119 10.9053 12.8163 11.8246 13.0229C12.0296 12.1502 12.1629 11.1795 12.2023 10.1429H5.79785ZM13.4889 10.1429C13.4479 11.292 13.3001 12.3825 13.0638 13.3724C13.7822 13.6191 14.4484 13.93 15.043 14.2957C15.9647 13.1361 16.5593 11.7057 16.6879 10.1427L13.4889 10.1429ZM1.31246 8.85714H4.51152C4.5525 7.70804 4.70036 6.61753 4.93661 5.62763C4.21821 5.38094 3.55205 5.06996 2.95741 4.70433C2.03571 5.86388 1.44103 7.29413 1.31246 8.85714ZM14.1383 3.74555C13.7052 3.99144 13.2255 4.20841 12.7056 4.39082C12.4227 3.57277 12.0748 2.85277 11.6754 2.26209C12.5907 2.60038 13.4239 3.10753 14.1383 3.74555ZM11.0325 3.711C10.2859 2.21877 9.49361 1.78564 9.00023 1.78564C8.50684 1.78564 7.71451 2.21877 6.968 3.711C6.8113 4.02439 6.66667 4.36832 6.53486 4.73957C7.33441 4.91314 8.17576 5.00153 9.02833 4.99992C9.86244 4.99751 10.6845 4.90912 11.4656 4.73957C11.3338 4.36832 11.1891 4.02439 11.0325 3.711ZM14.1383 15.2542C13.4239 15.8923 12.5907 16.3993 11.6753 16.7376C12.0747 16.147 12.4226 15.427 12.7055 14.6089C13.2254 14.7905 13.7052 15.0084 14.1383 15.2542ZM11.0325 15.2888C11.1892 14.9754 11.3338 14.6315 11.4656 14.2602C10.666 14.0867 9.82469 13.9983 8.97213 13.9999C8.13802 14.0015 7.31596 14.0907 6.53482 14.2602C6.66661 14.6315 6.81126 14.9754 6.96795 15.2888C7.71447 16.781 8.5068 17.2142 9.00019 17.2142C9.49357 17.2142 10.2859 16.781 11.0325 15.2888ZM6.3251 16.7376C5.92572 16.147 5.57778 15.427 5.29492 14.6089C4.77502 14.7905 4.29527 15.0083 3.86216 15.2542C4.57655 15.8922 5.40975 16.3993 6.3251 16.7376ZM3.86208 3.74555C4.29521 3.99144 4.77494 4.20921 5.29484 4.39082C5.5777 3.57277 5.92564 2.85277 6.32502 2.26209C5.40975 2.60038 4.57653 3.10753 3.86208 3.74555Z" fill="#F3F3F3"/>
</svg>
