<svg width="92" height="32" viewBox="0 0 92 32" fill="none" xmlns="http://www.w3.org/2000/svg">
<g clip-path="url(#clip0_80_4427)">
<path d="M42.6755 20.1615V4.31958H46.9395V11.0417L51.6226 4.31958H56.3057L50.2567 12.5556L56.6526 20.1687H51.9695L46.9395 14.3448V20.1687H42.6755V20.1615Z" fill="#111111"/>
<path d="M57.7944 8.24569C57.7944 5.67418 59.0086 3.97192 61.3646 3.97192C63.287 3.97192 64.8986 5.13815 65.3033 7.2026L66.9511 15.924H67.1245L68.7723 7.2026C69.1698 5.13815 70.7814 3.97192 72.711 3.97192C75.067 3.97192 76.2812 5.67418 76.2812 8.24569V20.1832H72.3641V8.57165H72.2268L70.579 17.293C70.1816 19.3575 68.9674 20.5237 67.045 20.5237C65.1226 20.5237 63.9085 19.3575 63.511 17.293L61.8632 8.57165H61.7259V20.176H57.8089V8.24569H57.7944Z" fill="#111111"/>
<path d="M84.1153 16.5831H92V20.1615H82.6193C80.3284 20.1615 78.8035 18.6331 78.8035 16.3368V4.31958H91.9928V7.89795H83.0674V10.3101H91.8193V13.8233H83.0674V15.54C83.0674 16.163 83.4866 16.5831 84.1081 16.5831H84.1153Z" fill="#111111"/>
<path d="M43.8463 27.1517C43.4777 26.9417 43.1959 26.6519 42.9863 26.2825C42.7767 25.9131 42.6755 25.4929 42.6755 25.0366C42.6755 24.5802 42.7767 24.1528 42.9863 23.7834C43.1959 23.414 43.4777 23.1242 43.8463 22.9142C44.2149 22.7041 44.6196 22.5955 45.0749 22.5955C45.4363 22.5955 45.7687 22.6607 46.0722 22.791C46.3758 22.9214 46.6287 23.1098 46.8311 23.3633L46.3469 23.8486C46.0144 23.4719 45.6025 23.2836 45.111 23.2836C44.7931 23.2836 44.5112 23.356 44.2583 23.5082C44.0053 23.6603 43.8102 23.8631 43.6656 24.1311C43.5211 24.3991 43.4488 24.6961 43.4488 25.0293C43.4488 25.3625 43.5211 25.6595 43.6656 25.9275C43.8102 26.1956 44.0053 26.4056 44.2583 26.5505C44.5112 26.7026 44.7931 26.7751 45.111 26.7751C45.5953 26.7751 46.0072 26.5867 46.3469 26.2028L46.8311 26.6881C46.6287 26.9417 46.3758 27.1372 46.0722 27.2676C45.7687 27.398 45.4363 27.4632 45.0677 27.4632C44.6196 27.4632 44.2077 27.3545 43.8391 27.1445L43.8463 27.1517Z" fill="#111111"/>
<path d="M47.8212 27.2096C47.5465 27.0503 47.3297 26.833 47.1707 26.5504C47.0117 26.2679 46.9323 25.9565 46.9323 25.6015C46.9323 25.2466 47.0117 24.9351 47.1707 24.6526C47.3297 24.3701 47.5465 24.1528 47.8212 23.9934C48.0958 23.8341 48.4066 23.7544 48.7535 23.7544C49.1004 23.7544 49.4111 23.8341 49.6857 23.9934C49.9604 24.1528 50.1772 24.3701 50.3289 24.6526C50.4879 24.9351 50.5602 25.2466 50.5602 25.6015C50.5602 25.9565 50.4807 26.2679 50.3289 26.5504C50.17 26.833 49.9604 27.0503 49.6857 27.2096C49.4111 27.369 49.1004 27.4487 48.7535 27.4487C48.4066 27.4487 48.0958 27.369 47.8212 27.2096ZM49.3027 26.6519C49.4617 26.5504 49.5918 26.4128 49.6785 26.2317C49.7725 26.0506 49.8158 25.8406 49.8158 25.6015C49.8158 25.3625 49.7725 25.1524 49.6785 24.9713C49.5846 24.7902 49.4617 24.6526 49.3027 24.5512C49.1437 24.4498 48.963 24.3991 48.7607 24.3991C48.5583 24.3991 48.3849 24.4498 48.2187 24.5512C48.0597 24.6526 47.9296 24.7902 47.8356 24.9713C47.7417 25.1524 47.6983 25.3625 47.6983 25.6015C47.6983 25.8406 47.7417 26.0506 47.8356 26.2317C47.9296 26.4128 48.0524 26.5504 48.2187 26.6519C48.3849 26.7533 48.5583 26.804 48.7607 26.804C48.963 26.804 49.1437 26.7533 49.3027 26.6519Z" fill="#111111"/>
<path d="M54.0797 24.1528C54.3327 24.4209 54.4628 24.8048 54.4628 25.3263V27.4125H53.7256V25.4422C53.7256 25.109 53.6533 24.8555 53.5088 24.6889C53.3643 24.5223 53.1547 24.4353 52.8728 24.4353C52.5693 24.4353 52.3236 24.5368 52.1429 24.7323C51.9622 24.9279 51.8755 25.2104 51.8755 25.5726V27.4125H51.1311V23.8051H51.8394V24.3846C51.9622 24.1891 52.1357 24.0297 52.3452 23.9283C52.5548 23.8196 52.7933 23.7689 53.0607 23.7689C53.4871 23.7689 53.834 23.8993 54.087 24.1673L54.0797 24.1528Z" fill="#111111"/>
<path d="M56.125 23.1025C56.0383 23.2039 55.9949 23.356 55.9949 23.5516V23.8486H56.9561V24.457H56.0166V27.4052H55.2722V24.457H54.7085V23.8486H55.2722V23.5371C55.2722 23.1677 55.3734 22.8707 55.583 22.6534C55.7926 22.436 56.0816 22.3274 56.4502 22.3274C56.5948 22.3274 56.7321 22.3419 56.8622 22.3781C56.9922 22.4143 57.1006 22.465 57.1874 22.5375L56.9778 23.1025C56.8405 23.0011 56.6887 22.9431 56.5225 22.9431C56.3563 22.9431 56.2189 22.9938 56.1322 23.0952L56.125 23.1025Z" fill="#111111"/>
<path d="M60.4324 25.8116H57.715C57.7511 26.1158 57.874 26.3621 58.0836 26.5432C58.2932 26.7243 58.5533 26.8112 58.8713 26.8112C59.2616 26.8112 59.5723 26.6736 59.8181 26.4056L60.2155 26.8619C59.8975 27.2531 59.4422 27.4487 58.8496 27.4487C58.4811 27.4487 58.1558 27.369 57.8668 27.2096C57.5849 27.0503 57.3609 26.833 57.2019 26.5504C57.0429 26.2679 56.9634 25.9565 56.9634 25.6015C56.9634 25.2466 57.0429 24.9351 57.1946 24.6526C57.3464 24.3701 57.556 24.1528 57.8234 23.9934C58.0908 23.8341 58.3871 23.7544 58.7268 23.7544C59.0664 23.7544 59.3411 23.8268 59.6012 23.9789C59.8614 24.1311 60.071 24.3484 60.2228 24.6236C60.3745 24.9061 60.4468 25.2249 60.4468 25.5943C60.4468 25.6595 60.4396 25.7319 60.4324 25.8044V25.8116ZM58.033 24.6236C57.8451 24.8047 57.7367 25.0438 57.715 25.3335H59.753C59.7241 25.0365 59.6085 24.8047 59.4278 24.6236C59.2399 24.4425 59.0086 24.3556 58.734 24.3556C58.4594 24.3556 58.2281 24.4425 58.0402 24.6236H58.033Z" fill="#111111"/>
<path d="M62.1668 26.1086L61.249 27.4052H60.4396L61.7694 25.5725L60.4902 23.7979H61.3285L62.1957 25.0293L63.0774 23.7979H63.8724L62.6005 25.5581L63.9447 27.4124H63.0991L62.1885 26.1158L62.1668 26.1086Z" fill="#111111"/>
<path d="M68.8301 23.1025C69.1698 23.3995 69.3433 23.8124 69.3433 24.3339C69.3433 24.6744 69.2638 24.9786 69.112 25.2249C68.9602 25.4784 68.7362 25.6668 68.4543 25.8044C68.1652 25.9348 67.8328 26.0072 67.4425 26.0072H66.3946V27.4125H65.6213V22.6606H67.4425C68.0279 22.6606 68.4905 22.8128 68.8374 23.1098L68.8301 23.1025ZM68.2592 25.0728C68.4543 24.8989 68.5555 24.6527 68.5555 24.3339C68.5555 24.0152 68.4543 23.7617 68.2592 23.5878C68.0568 23.414 67.775 23.3198 67.3992 23.3198H66.3874V25.3336H67.3992C67.775 25.3336 68.0641 25.2466 68.2592 25.0655V25.0728Z" fill="#111111"/>
<path d="M70.7091 22.3708V27.4052H69.9647V22.3708H70.7091Z" fill="#111111"/>
<path d="M74.0264 24.1311C74.2866 24.3846 74.4167 24.7541 74.4167 25.2539V27.4052H73.7229V26.8692C73.6289 27.0575 73.4844 27.1952 73.2965 27.2966C73.1014 27.398 72.8773 27.4487 72.6099 27.4487C72.2197 27.4487 71.9161 27.3473 71.6921 27.1517C71.468 26.9561 71.3524 26.6954 71.3524 26.3839C71.3524 26.0724 71.468 25.8044 71.6921 25.6161C71.9161 25.4277 72.2702 25.3336 72.7472 25.3336H73.6795C73.6795 25.1814 73.6578 25.0655 73.6217 24.9641C73.5422 24.573 73.2748 24.3774 72.8123 24.3774C72.6099 24.3774 72.4148 24.4136 72.2269 24.4788C72.039 24.544 71.88 24.6382 71.7427 24.7613L71.468 24.2108C71.6487 24.0659 71.8655 23.95 72.1185 23.8703C72.3714 23.7907 72.6316 23.7472 72.899 23.7472C73.3904 23.7472 73.7662 23.8703 74.0264 24.1239V24.1311ZM73.3398 26.7533C73.4916 26.6519 73.6072 26.4998 73.6795 26.297V25.8044H72.8195C72.3208 25.8044 72.0751 25.9855 72.0751 26.3477C72.0751 26.5215 72.1402 26.6591 72.263 26.7606C72.3859 26.862 72.5666 26.9127 72.7834 26.9127C73.0002 26.9127 73.1881 26.862 73.3398 26.7533Z" fill="#111111"/>
<path d="M76.9678 27.3907C76.8305 27.4269 76.6859 27.4487 76.5414 27.4487C76.1728 27.4487 75.891 27.3473 75.6958 27.1444C75.5007 26.9416 75.3995 26.6519 75.3995 26.2752V24.4643H74.8358V23.8558H75.3995V23.0083H76.1439V23.8558H77.0834V24.4643H76.1439V26.2535C76.1439 26.4346 76.1873 26.5722 76.274 26.6736C76.3607 26.775 76.4836 26.8257 76.6426 26.8257C76.8232 26.8257 76.975 26.775 77.0979 26.6664L77.3147 27.2241C77.228 27.3038 77.1123 27.3617 76.975 27.398L76.9678 27.3907Z" fill="#111111"/>
<path d="M78.7528 23.1025C78.6661 23.2039 78.6227 23.356 78.6227 23.5516V23.8486H79.5839V24.457H78.6444V27.4052H77.9V24.457H77.3363V23.8486H77.9V23.5371C77.9 23.1677 78.0012 22.8707 78.2108 22.6534C78.4204 22.436 78.7094 22.3274 79.078 22.3274C79.2226 22.3274 79.3599 22.3419 79.49 22.3781C79.62 22.4143 79.7284 22.465 79.8152 22.5375L79.6056 23.1025C79.4683 23.0011 79.3165 22.9431 79.1503 22.9431C78.9841 22.9431 78.8468 22.9938 78.76 23.0952L78.7528 23.1025Z" fill="#111111"/>
<path d="M80.4801 27.2096C80.2055 27.0503 79.9887 26.833 79.8297 26.5504C79.6707 26.2679 79.5912 25.9565 79.5912 25.6015C79.5912 25.2466 79.6707 24.9351 79.8297 24.6526C79.9887 24.3701 80.2055 24.1528 80.4801 23.9934C80.7547 23.8341 81.0655 23.7544 81.4124 23.7544C81.7593 23.7544 82.0701 23.8341 82.3447 23.9934C82.6193 24.1528 82.8361 24.3701 82.9879 24.6526C83.1469 24.9351 83.2192 25.2466 83.2192 25.6015C83.2192 25.9565 83.1397 26.2679 82.9879 26.5504C82.8289 26.833 82.6193 27.0503 82.3447 27.2096C82.0701 27.369 81.7593 27.4487 81.4124 27.4487C81.0655 27.4487 80.7547 27.369 80.4801 27.2096ZM81.9617 26.6519C82.1206 26.5504 82.2507 26.4128 82.3375 26.2317C82.4314 26.0506 82.4748 25.8406 82.4748 25.6015C82.4748 25.3625 82.4314 25.1524 82.3375 24.9713C82.2435 24.7902 82.1206 24.6526 81.9617 24.5512C81.8027 24.4498 81.622 24.3991 81.4196 24.3991C81.2173 24.3991 81.0438 24.4498 80.8776 24.5512C80.7186 24.6526 80.5885 24.7902 80.4946 24.9713C80.4006 25.1524 80.3573 25.3625 80.3573 25.6015C80.3573 25.8406 80.4006 26.0506 80.4946 26.2317C80.5885 26.4128 80.7114 26.5504 80.8776 26.6519C81.0438 26.7533 81.2173 26.804 81.4196 26.804C81.622 26.804 81.8027 26.7533 81.9617 26.6519Z" fill="#111111"/>
<path d="M85.0187 23.9138C85.2282 23.8051 85.474 23.7544 85.763 23.7544V24.4788C85.6763 24.4715 85.6113 24.4643 85.5896 24.4643C85.2716 24.4643 85.0259 24.5657 84.838 24.7685C84.6573 24.9713 84.5634 25.2611 84.5634 25.6305V27.4052H83.819V23.7979H84.5272V24.3991C84.6428 24.189 84.8091 24.0224 85.0114 23.9138H85.0187Z" fill="#111111"/>
<path d="M91.6242 24.1528C91.8699 24.4209 91.9927 24.8048 91.9927 25.3263V27.4125H91.2556V25.4422C91.2556 25.109 91.1833 24.8555 91.0388 24.6889C90.8942 24.5223 90.6991 24.4353 90.4389 24.4353C90.1499 24.4353 89.9186 24.5295 89.7451 24.7251C89.5717 24.9207 89.485 25.1959 89.485 25.5509V27.4052H88.7478V25.435C88.7478 25.1018 88.6755 24.8482 88.5382 24.6816C88.4009 24.515 88.1986 24.4281 87.9456 24.4281C87.6565 24.4281 87.4253 24.5223 87.259 24.7178C87.0928 24.9134 87.0061 25.1887 87.0061 25.5436V27.398H86.2617V23.7907H86.97V24.3557C87.0928 24.1601 87.2518 24.0152 87.4542 23.9066C87.6565 23.8051 87.8806 23.7472 88.1407 23.7472C88.4154 23.7472 88.6466 23.8051 88.849 23.9283C89.0514 24.0514 89.2031 24.2253 89.3115 24.4643C89.4344 24.2398 89.6151 24.0659 89.8391 23.9428C90.0631 23.8196 90.3161 23.7544 90.6052 23.7544C91.0316 23.7544 91.364 23.8848 91.6169 24.1528H91.6242Z" fill="#111111"/>
<path d="M26.9134 17.4162C26.1401 16.6411 26.1401 15.3807 26.9134 14.6056L31.1268 10.3826C33.4178 8.09357 33.4178 4.37757 31.1268 2.08857C28.843 -0.200423 25.1428 -0.200423 22.8518 2.08857L12.5172 12.447C10.5515 14.4173 10.5515 17.6045 12.5172 19.5748L22.8302 29.9115C25.1139 32.2005 28.8214 32.2005 31.1051 29.9115C32.247 28.767 32.8179 27.2603 32.8179 25.7609C32.8179 24.2614 32.247 22.7547 31.1051 21.6102L26.9134 17.4162ZM29.3273 28.1295C28.6985 28.7597 27.8602 29.1074 26.964 29.1074C26.0679 29.1074 25.2368 28.7597 24.608 28.1295L18.1976 21.7044L16.4198 19.9225L14.2951 17.7928C13.8181 17.3148 13.5579 16.6846 13.5579 16.0109C13.5579 15.3372 13.8181 14.707 14.2951 14.229L24.6297 3.87052C25.2584 3.23307 26.0968 2.88538 26.9929 2.88538C27.8891 2.88538 28.7202 3.23307 29.3562 3.87052C29.9921 4.50796 30.3318 5.34098 30.3318 6.23195C30.3318 7.12292 29.9849 7.97043 29.3562 8.60063L25.1356 12.8237C23.3866 14.5839 23.3866 17.4379 25.1356 19.1981L29.3273 23.3922C30.6281 24.696 30.6281 26.8184 29.3273 28.1295ZM14.6419 21.7044L16.4198 23.4864L10.0167 29.9115C8.87478 31.056 7.37156 31.6282 5.87557 31.6282C4.37958 31.6282 2.87636 31.056 1.73449 29.9115C-0.549254 27.6152 -0.549254 23.9065 1.73449 21.6102L5.92616 17.4162C6.69945 16.6411 6.69945 15.3807 5.92616 14.6056L1.7128 10.3826C0.570935 9.23807 0 7.73863 0 6.23919C0 4.73976 0.570935 3.23307 1.7128 2.08857C3.99654 -0.200423 7.70401 -0.200423 9.98775 2.08857L16.4198 8.53544L14.6419 10.3174L8.2099 3.87052C7.58115 3.23307 6.74281 2.88538 5.85389 2.88538C4.96496 2.88538 4.1194 3.23307 3.49065 3.87052C2.8619 4.50071 2.515 5.34098 2.515 6.23195C2.515 7.12292 2.8619 7.97043 3.49065 8.60063L7.70401 12.8237C9.46017 14.5839 9.46017 17.4379 7.70401 19.1981L3.51233 23.3922C2.21147 24.696 2.21147 26.8184 3.51233 28.1295C4.14831 28.7597 4.98665 29.1074 5.87557 29.1074C6.76449 29.1074 7.60283 28.7597 8.23881 28.1295L14.6419 21.7044Z" fill="#111111"/>
</g>
<defs>
<clipPath id="clip0_80_4427">
<rect width="92" height="31.2564" fill="white" transform="translate(0 0.371826)"/>
</clipPath>
</defs>
</svg>
