<svg width="92" height="32" viewBox="0 0 92 32" fill="none" xmlns="http://www.w3.org/2000/svg">
<g clip-path="url(#clip0_110_4801)">
<path d="M42.6758 20.1615V4.31959H46.9397V11.0417L51.6228 4.31959H56.3059L50.2569 12.5556L56.6528 20.1687H51.9697L46.9397 14.3448V20.1687H42.6758V20.1615Z" fill="white"/>
<path d="M57.7949 8.24566C57.7949 5.67416 59.0091 3.9719 61.3651 3.9719C63.2875 3.9719 64.8991 5.13813 65.3038 7.20257L66.9516 15.9239H67.125L68.7728 7.20257C69.1703 5.13813 70.7819 3.9719 72.7115 3.9719C75.0675 3.9719 76.2816 5.67416 76.2816 8.24566V20.1832H72.3646V8.57162H72.2273L70.5795 17.293C70.182 19.3574 68.9679 20.5237 67.0455 20.5237C65.1231 20.5237 63.909 19.3574 63.5115 17.293L61.8637 8.57162H61.7264V20.176H57.8094V8.24566H57.7949Z" fill="white"/>
<path d="M84.1156 16.5831H92.0003V20.1615H82.6196C80.3286 20.1615 78.8037 18.6331 78.8037 16.3368V4.31959H91.993V7.89796H83.0677V10.3101H91.8196V13.8233H83.0677V15.54C83.0677 16.163 83.4868 16.5831 84.1083 16.5831H84.1156Z" fill="white"/>
<path d="M43.8466 27.1516C43.478 26.9416 43.1961 26.6518 42.9865 26.2824C42.777 25.913 42.6758 25.4928 42.6758 25.0365C42.6758 24.5801 42.777 24.1527 42.9865 23.7833C43.1961 23.4139 43.478 23.1241 43.8466 22.9141C44.2151 22.704 44.6198 22.5954 45.0752 22.5954C45.4365 22.5954 45.7689 22.6606 46.0725 22.7909C46.376 22.9213 46.629 23.1097 46.8313 23.3632L46.3471 23.8485C46.0147 23.4718 45.6027 23.2835 45.1113 23.2835C44.7933 23.2835 44.5114 23.3559 44.2585 23.5081C44.0056 23.6602 43.8104 23.863 43.6659 24.131C43.5213 24.399 43.4491 24.696 43.4491 25.0292C43.4491 25.3624 43.5213 25.6594 43.6659 25.9274C43.8104 26.1955 44.0056 26.4055 44.2585 26.5504C44.5114 26.7025 44.7933 26.775 45.1113 26.775C45.5955 26.775 46.0074 26.5866 46.3471 26.2027L46.8313 26.688C46.629 26.9416 46.376 27.1371 46.0725 27.2675C45.7689 27.3979 45.4365 27.4631 45.0679 27.4631C44.6199 27.4631 44.2079 27.3544 43.8393 27.1444L43.8466 27.1516Z" fill="white"/>
<path d="M47.8215 27.2096C47.5469 27.0502 47.3301 26.8329 47.1711 26.5504C47.0121 26.2679 46.9326 25.9564 46.9326 25.6015C46.9326 25.2465 47.0121 24.9351 47.1711 24.6526C47.3301 24.3701 47.5469 24.1527 47.8215 23.9934C48.0962 23.834 48.4069 23.7543 48.7538 23.7543C49.1007 23.7543 49.4115 23.834 49.6861 23.9934C49.9607 24.1527 50.1775 24.3701 50.3293 24.6526C50.4883 24.9351 50.5606 25.2465 50.5606 25.6015C50.5606 25.9564 50.4811 26.2679 50.3293 26.5504C50.1703 26.8329 49.9607 27.0502 49.6861 27.2096C49.4115 27.3689 49.1007 27.4486 48.7538 27.4486C48.4069 27.4486 48.0962 27.3689 47.8215 27.2096ZM49.3031 26.6518C49.4621 26.5504 49.5922 26.4128 49.6789 26.2317C49.7728 26.0506 49.8162 25.8405 49.8162 25.6015C49.8162 25.3624 49.7728 25.1524 49.6789 24.9713C49.5849 24.7902 49.4621 24.6526 49.3031 24.5511C49.1441 24.4497 48.9634 24.399 48.7611 24.399C48.5587 24.399 48.3852 24.4497 48.219 24.5511C48.06 24.6526 47.9299 24.7902 47.836 24.9713C47.742 25.1524 47.6987 25.3624 47.6987 25.6015C47.6987 25.8405 47.742 26.0506 47.836 26.2317C47.9299 26.4128 48.0528 26.5504 48.219 26.6518C48.3852 26.7532 48.5587 26.8039 48.7611 26.8039C48.9634 26.8039 49.1441 26.7532 49.3031 26.6518Z" fill="white"/>
<path d="M54.0805 24.1527C54.3334 24.4208 54.4635 24.8047 54.4635 25.3262V27.4124H53.7263V25.4421C53.7263 25.1089 53.6541 24.8554 53.5095 24.6888C53.365 24.5222 53.1554 24.4352 52.8736 24.4352C52.57 24.4352 52.3243 24.5367 52.1436 24.7322C51.9629 24.9278 51.8762 25.2103 51.8762 25.5725V27.4124H51.1318V23.805H51.8401V24.3845C51.9629 24.189 52.1364 24.0296 52.346 23.9282C52.5556 23.8195 52.794 23.7688 53.0614 23.7688C53.4878 23.7688 53.8347 23.8992 54.0877 24.1672L54.0805 24.1527Z" fill="white"/>
<path d="M56.1255 23.1024C56.0388 23.2038 55.9954 23.3559 55.9954 23.5515V23.8485H56.9566V24.457H56.0171V27.4051H55.2727V24.457H54.709V23.8485H55.2727V23.537C55.2727 23.1676 55.3739 22.8706 55.5835 22.6533C55.793 22.436 56.0821 22.3273 56.4507 22.3273C56.5952 22.3273 56.7326 22.3418 56.8626 22.378C56.9927 22.4143 57.1011 22.465 57.1879 22.5374L56.9783 23.1024C56.841 23.001 56.6892 22.9431 56.523 22.9431C56.3567 22.9431 56.2194 22.9938 56.1327 23.0952L56.1255 23.1024Z" fill="white"/>
<path d="M60.4328 25.8115H57.7155C57.7516 26.1158 57.8745 26.3621 58.0841 26.5432C58.2936 26.7242 58.5538 26.8112 58.8718 26.8112C59.2621 26.8112 59.5728 26.6735 59.8185 26.4055L60.216 26.8619C59.898 27.253 59.4427 27.4486 58.8501 27.4486C58.4815 27.4486 58.1563 27.3689 57.8672 27.2096C57.5854 27.0502 57.3614 26.8329 57.2024 26.5504C57.0434 26.2679 56.9639 25.9564 56.9639 25.6015C56.9639 25.2465 57.0434 24.9351 57.1951 24.6526C57.3469 24.3701 57.5565 24.1527 57.8239 23.9934C58.0913 23.834 58.3876 23.7543 58.7273 23.7543C59.0669 23.7543 59.3416 23.8268 59.6017 23.9789C59.8619 24.131 60.0715 24.3483 60.2233 24.6236C60.375 24.9061 60.4473 25.2248 60.4473 25.5942C60.4473 25.6594 60.4401 25.7319 60.4328 25.8043V25.8115ZM58.0335 24.6236C57.8456 24.8047 57.7372 25.0437 57.7155 25.3335H59.7535C59.7246 25.0365 59.609 24.8047 59.4283 24.6236C59.2404 24.4425 59.0091 24.3556 58.7345 24.3556C58.4599 24.3556 58.2286 24.4425 58.0407 24.6236H58.0335Z" fill="white"/>
<path d="M62.1667 26.1085L61.2489 27.4051H60.4395L61.7692 25.5725L60.49 23.7978H61.3284L62.1956 25.0292L63.0773 23.7978H63.8723L62.6003 25.558L63.9446 27.4124H63.099L62.1884 26.1158L62.1667 26.1085Z" fill="white"/>
<path d="M68.8299 23.1024C69.1696 23.3994 69.343 23.8123 69.343 24.3338C69.343 24.6743 69.2635 24.9785 69.1117 25.2248C68.96 25.4783 68.7359 25.6667 68.4541 25.8043C68.165 25.9347 67.8326 26.0071 67.4423 26.0071H66.3944V27.4124H65.6211V22.6606H67.4423C68.0277 22.6606 68.4902 22.8127 68.8371 23.1097L68.8299 23.1024ZM68.259 25.0727C68.4541 24.8988 68.5553 24.6526 68.5553 24.3338C68.5553 24.0151 68.4541 23.7616 68.259 23.5877C68.0566 23.4139 67.7747 23.3197 67.3989 23.3197H66.3872V25.3335H67.3989C67.7747 25.3335 68.0638 25.2465 68.259 25.0654V25.0727Z" fill="white"/>
<path d="M70.7092 22.3708V27.4051H69.9648V22.3708H70.7092Z" fill="white"/>
<path d="M74.0265 24.131C74.2867 24.3845 74.4168 24.754 74.4168 25.2538V27.4051H73.723V26.8691C73.629 27.0575 73.4845 27.1951 73.2966 27.2965C73.1015 27.3979 72.8774 27.4486 72.61 27.4486C72.2198 27.4486 71.9162 27.3472 71.6922 27.1516C71.4682 26.956 71.3525 26.6953 71.3525 26.3838C71.3525 26.0723 71.4682 25.8043 71.6922 25.616C71.9162 25.4276 72.2704 25.3335 72.7474 25.3335H73.6796C73.6796 25.1813 73.658 25.0654 73.6218 24.964C73.5423 24.5729 73.2749 24.3773 72.8124 24.3773C72.61 24.3773 72.4149 24.4135 72.227 24.4787C72.0391 24.5439 71.8801 24.6381 71.7428 24.7612L71.4682 24.2107C71.6488 24.0658 71.8657 23.9499 72.1186 23.8702C72.3715 23.7906 72.6317 23.7471 72.8991 23.7471C73.3906 23.7471 73.7664 23.8702 74.0265 24.1238V24.131ZM73.34 26.7532C73.4917 26.6518 73.6074 26.4997 73.6796 26.2969V25.8043H72.8196C72.321 25.8043 72.0752 25.9854 72.0752 26.3476C72.0752 26.5214 72.1403 26.6591 72.2631 26.7605C72.386 26.8619 72.5667 26.9126 72.7835 26.9126C73.0003 26.9126 73.1882 26.8619 73.34 26.7532Z" fill="white"/>
<path d="M76.9679 27.3907C76.8306 27.4269 76.6861 27.4486 76.5415 27.4486C76.1729 27.4486 75.8911 27.3472 75.6959 27.1444C75.5008 26.9416 75.3996 26.6518 75.3996 26.2751V24.4642H74.8359V23.8558H75.3996V23.0082H76.144V23.8558H77.0835V24.4642H76.144V26.2534C76.144 26.4345 76.1874 26.5721 76.2741 26.6735C76.3608 26.775 76.4837 26.8257 76.6427 26.8257C76.8234 26.8257 76.9751 26.7749 77.098 26.6663L77.3148 27.2241C77.2281 27.3037 77.1124 27.3617 76.9751 27.3979L76.9679 27.3907Z" fill="white"/>
<path d="M78.7534 23.1024C78.6667 23.2038 78.6233 23.3559 78.6233 23.5515V23.8485H79.5845V24.457H78.645V27.4051H77.9006V24.457H77.3369V23.8485H77.9006V23.537C77.9006 23.1676 78.0018 22.8706 78.2114 22.6533C78.421 22.436 78.71 22.3273 79.0786 22.3273C79.2232 22.3273 79.3605 22.3418 79.4906 22.378C79.6206 22.4143 79.7291 22.465 79.8158 22.5374L79.6062 23.1024C79.4689 23.001 79.3171 22.9431 79.1509 22.9431C78.9847 22.9431 78.8474 22.9938 78.7606 23.0952L78.7534 23.1024Z" fill="white"/>
<path d="M80.4807 27.2096C80.2061 27.0502 79.9893 26.8329 79.8303 26.5504C79.6713 26.2679 79.5918 25.9564 79.5918 25.6015C79.5918 25.2465 79.6713 24.9351 79.8303 24.6526C79.9893 24.3701 80.2061 24.1527 80.4807 23.9934C80.7553 23.834 81.0661 23.7543 81.413 23.7543C81.7599 23.7543 82.0707 23.834 82.3453 23.9934C82.6199 24.1527 82.8367 24.3701 82.9885 24.6526C83.1475 24.9351 83.2198 25.2465 83.2198 25.6015C83.2198 25.9564 83.1403 26.2679 82.9885 26.5504C82.8295 26.8329 82.6199 27.0502 82.3453 27.2096C82.0707 27.3689 81.7599 27.4486 81.413 27.4486C81.0661 27.4486 80.7553 27.3689 80.4807 27.2096ZM81.9623 26.6518C82.1213 26.5504 82.2513 26.4128 82.3381 26.2317C82.432 26.0506 82.4754 25.8405 82.4754 25.6015C82.4754 25.3624 82.432 25.1524 82.3381 24.9713C82.2441 24.7902 82.1213 24.6526 81.9623 24.5511C81.8033 24.4497 81.6226 24.399 81.4202 24.399C81.2179 24.399 81.0444 24.4497 80.8782 24.5511C80.7192 24.6526 80.5891 24.7902 80.4952 24.9713C80.4012 25.1524 80.3579 25.3624 80.3579 25.6015C80.3579 25.8405 80.4012 26.0506 80.4952 26.2317C80.5891 26.4128 80.712 26.5504 80.8782 26.6518C81.0444 26.7532 81.2179 26.8039 81.4202 26.8039C81.6226 26.8039 81.8033 26.7532 81.9623 26.6518Z" fill="white"/>
<path d="M85.019 23.9137C85.2286 23.805 85.4743 23.7543 85.7634 23.7543V24.4787C85.6767 24.4715 85.6116 24.4642 85.59 24.4642C85.272 24.4642 85.0262 24.5656 84.8383 24.7685C84.6577 24.9713 84.5637 25.261 84.5637 25.6305V27.4051H83.8193V23.7978H84.5276V24.399C84.6432 24.189 84.8094 24.0224 85.0118 23.9137H85.019Z" fill="white"/>
<path d="M91.6242 24.1527C91.8699 24.4208 91.9927 24.8047 91.9927 25.3262V27.4124H91.2556V25.4421C91.2556 25.1089 91.1833 24.8554 91.0388 24.6888C90.8942 24.5222 90.6991 24.4352 90.4389 24.4352C90.1499 24.4352 89.9186 24.5294 89.7451 24.725C89.5717 24.9206 89.485 25.1958 89.485 25.5508V27.4051H88.7478V25.4349C88.7478 25.1017 88.6755 24.8481 88.5382 24.6815C88.4009 24.5149 88.1986 24.428 87.9456 24.428C87.6565 24.428 87.4253 24.5222 87.259 24.7178C87.0928 24.9133 87.0061 25.1886 87.0061 25.5435V27.3979H86.2617V23.7906H86.97V24.3556C87.0928 24.16 87.2518 24.0151 87.4542 23.9065C87.6565 23.8051 87.8806 23.7471 88.1407 23.7471C88.4154 23.7471 88.6466 23.805 88.849 23.9282C89.0513 24.0513 89.2031 24.2252 89.3115 24.4642C89.4344 24.2397 89.6151 24.0658 89.8391 23.9427C90.0631 23.8195 90.3161 23.7543 90.6052 23.7543C91.0316 23.7543 91.364 23.8847 91.6169 24.1527H91.6242Z" fill="white"/>
<path d="M26.9134 17.4161C26.1401 16.6411 26.1401 15.3807 26.9134 14.6056L31.1268 10.3825C33.4178 8.09354 33.4178 4.37754 31.1268 2.08854C28.843 -0.200454 25.1428 -0.200454 22.8518 2.08854L12.5172 12.447C10.5515 14.4173 10.5515 17.6045 12.5172 19.5747L22.8302 29.9115C25.1139 32.2005 28.8214 32.2005 31.1051 29.9115C32.247 28.767 32.8179 27.2603 32.8179 25.7608C32.8179 24.2614 32.247 22.7547 31.1051 21.6102L26.9134 17.4161ZM29.3273 28.1295C28.6985 28.7597 27.8602 29.1074 26.964 29.1074C26.0679 29.1074 25.2368 28.7597 24.608 28.1295L18.1976 21.7044L16.4198 19.9224L14.2951 17.7928C13.8181 17.3147 13.5579 16.6845 13.5579 16.0109C13.5579 15.3372 13.8181 14.707 14.2951 14.2289L24.6297 3.87049C25.2584 3.23304 26.0968 2.88535 26.9929 2.88535C27.8891 2.88535 28.7202 3.23304 29.3562 3.87049C29.9921 4.50793 30.3318 5.34095 30.3318 6.23192C30.3318 7.12289 29.9849 7.9704 29.3562 8.6006L25.1356 12.8237C23.3866 14.5839 23.3866 17.4379 25.1356 19.1981L29.3273 23.3922C30.6281 24.696 30.6281 26.8184 29.3273 28.1295ZM14.6419 21.7044L16.4198 23.4863L10.0167 29.9115C8.87478 31.056 7.37156 31.6282 5.87557 31.6282C4.37958 31.6282 2.87636 31.056 1.73449 29.9115C-0.549254 27.6152 -0.549254 23.9065 1.73449 21.6102L5.92616 17.4161C6.69945 16.6411 6.69945 15.3807 5.92616 14.6056L1.7128 10.3825C0.570935 9.23804 0 7.7386 0 6.23916C0 4.73973 0.570935 3.23304 1.7128 2.08854C3.99654 -0.200454 7.70401 -0.200454 9.98775 2.08854L16.4198 8.5354L14.6419 10.3173L8.2099 3.87049C7.58115 3.23304 6.74281 2.88535 5.85389 2.88535C4.96496 2.88535 4.1194 3.23304 3.49065 3.87049C2.8619 4.50068 2.515 5.34095 2.515 6.23192C2.515 7.12289 2.8619 7.9704 3.49065 8.6006L7.70401 12.8237C9.46017 14.5839 9.46017 17.4379 7.70401 19.1981L3.51233 23.3922C2.21147 24.696 2.21147 26.8184 3.51233 28.1295C4.14831 28.7597 4.98665 29.1074 5.87557 29.1074C6.76449 29.1074 7.60283 28.7597 8.23881 28.1295L14.6419 21.7044Z" fill="white"/>
</g>
<defs>
<clipPath id="clip0_110_4801">
<rect width="92" height="31.2564" fill="white" transform="translate(0 0.371796)"/>
</clipPath>
</defs>
</svg>
