<svg width="171" height="42" viewBox="0 0 171 42" fill="none" xmlns="http://www.w3.org/2000/svg">
<path d="M76.0898 35.7291H70.9125L68.2712 32.6072C67.0778 32.9141 66.0862 33.1421 65.2964 33.2825C64.5066 33.4228 63.8046 33.4929 63.1816 33.4929C61.5143 33.4929 59.8822 33.1684 58.2763 32.5107C56.6705 31.8618 55.2752 30.9498 54.0818 29.7834C52.8533 28.5908 51.9144 27.214 51.2562 25.653C50.5981 24.0921 50.2734 22.4609 50.2734 20.7597C50.2734 19.0584 50.5981 17.4273 51.2562 15.8838C51.9056 14.3404 52.8533 12.9548 54.0906 11.7446C55.3016 10.5432 56.6968 9.6312 58.2763 8.99103C59.8646 8.35963 61.5319 8.03516 63.2957 8.03516C65.0595 8.03516 66.6741 8.35086 68.2536 8.99103C69.8331 9.6312 71.2372 10.5432 72.4657 11.7446C73.6942 12.9548 74.6331 14.3229 75.2825 15.8663C75.9318 17.4097 76.2653 19.0408 76.2653 20.7684C76.2653 22.6714 75.8704 24.4516 75.0894 26.1003C74.2997 27.7489 73.1501 29.2222 71.632 30.5025L76.1073 35.7379L76.0898 35.7291ZM66.7443 24.6621L68.5344 26.7755C69.2803 26.0038 69.8595 25.0918 70.2631 24.0482C70.6668 23.0046 70.8686 21.9172 70.8686 20.7947C70.8686 18.4971 70.149 16.5591 68.7011 14.9806C67.2533 13.4108 65.4544 12.6216 63.2869 12.6216C61.1195 12.6216 59.2679 13.4021 57.82 14.9718C56.3721 16.5415 55.6526 18.4796 55.6526 20.7947C55.6526 23.1099 56.3634 25.0742 57.7849 26.6089C59.1977 28.1523 61.0054 28.9153 63.1904 28.9153C63.3747 28.9153 63.6379 28.8977 63.9801 28.8539C64.3136 28.8188 64.7172 28.7574 65.1823 28.6785L61.6898 24.6533H66.7531L66.7443 24.6621Z" fill="#111111"/>
<path d="M101.883 32.9056V8.58789H107.867C111.062 8.58789 113.422 9.19298 114.94 10.4119C116.467 11.6309 117.23 13.5076 117.23 16.0595C117.23 18.4185 116.467 20.2688 114.931 21.6105C113.396 22.9523 111.272 23.6275 108.561 23.6275H107.13V32.9144H101.892L101.883 32.9056ZM107.122 19.5673H107.867C109.289 19.5673 110.316 19.2779 110.965 18.6903C111.606 18.1028 111.93 17.1644 111.93 15.8665C111.93 14.6739 111.614 13.797 110.965 13.2445C110.324 12.7008 109.289 12.4201 107.867 12.4201H107.122V19.5585V19.5673Z" fill="#111111"/>
<path d="M119.211 32.9056V8.58789H124.415V32.9144H119.211V32.9056Z" fill="#111111"/>
<path d="M147.868 14.9103C146.806 13.972 145.726 13.2792 144.621 12.8407C143.515 12.4023 142.322 12.183 141.067 12.183C138.469 12.183 136.407 12.9635 134.863 14.5069C133.318 16.0591 132.546 18.1375 132.546 20.7596C132.546 23.3816 133.257 25.346 134.687 26.8456C136.118 28.3452 138.075 29.0993 140.549 29.0993C141.953 29.0993 143.269 28.8626 144.472 28.3978C145.683 27.9242 146.806 27.2227 147.832 26.2756L147.797 31.6074C146.692 32.2563 145.525 32.7474 144.314 33.0719C143.103 33.3964 141.821 33.5542 140.488 33.5542C136.609 33.5542 133.424 32.344 130.94 29.9412C128.448 27.5296 127.211 24.4691 127.211 20.7596C127.211 17.0501 128.457 14.0071 130.949 11.6043C133.441 9.20142 136.653 8 140.593 8C141.909 8 143.19 8.14031 144.419 8.41216C145.647 8.69279 146.858 9.11372 148.052 9.69251L147.876 14.9103H147.868Z" fill="#111111"/>
<path d="M151 32.9056V8.58789H156.195V19.6023L164.312 8.58789H170.332L161.618 19.6637L170.647 32.9056H164.373L156.195 20.1724V32.9056H151Z" fill="#111111"/>
<path d="M78.4219 8.54297V32.9045H83.5992V12.2963H89.6277C91.0054 12.2963 92.1286 13.5766 92.1286 15.1464C92.1286 16.3916 91.4178 17.444 90.435 17.8298C90.1805 17.9263 89.9085 17.9965 89.6277 17.9965H85.3367L92.2427 32.9133H97.42L92.0759 21.3464C94.6207 20.4256 96.4372 18.0052 96.4372 15.1464C96.4372 11.4983 93.4799 8.55174 89.8383 8.55174H78.4306L78.4219 8.54297Z" fill="#111111"/>
<path d="M29.9531 27.1845L32.4804 30.8413V24.5098C32.3838 24.7027 32.2873 24.8956 32.1732 25.0798C31.6467 25.9392 30.9008 26.6407 29.9531 27.1845Z" fill="#FF6C0E"/>
<path d="M27.1635 23.038C27.6373 22.6258 27.8655 22.0996 27.8655 21.4332V20.4948C27.8655 19.802 27.6461 19.2583 27.1898 18.8286C26.7335 18.3989 25.8911 18.1797 24.6977 18.1797H20.0469V31.9828H27.532L22.1968 23.6869H24.3554C26.0666 23.6869 26.83 23.3361 27.1635 23.038Z" fill="#FF6C0E"/>
<path d="M32.4822 13.2076C32.4822 10.9275 30.6307 9.08594 28.3579 9.08594H9.64062V31.9918H14.739V13.5233H25.2077C26.4449 13.5233 27.5594 13.6899 28.5334 14.0319C29.5162 14.3739 30.3586 14.8475 31.0343 15.4438C31.6486 15.9787 32.1312 16.6277 32.4822 17.3555V13.2076Z" fill="#FF6C0E"/>
<path d="M29.3126 0H25.6797V6.25263H29.3126C32.5769 6.25263 35.2182 8.89224 35.2182 12.1545V34.7885L39.5619 41.0586H41.4749V12.1457C41.4749 5.44584 36.0168 0 29.3214 0H29.3126Z" fill="#FF6C0E"/>
<path d="M1.03358 0H0.65625V6.25263H1.03358V0Z" fill="#FF6C0E"/>
<path d="M3.97952 0H3.38281V6.25263H3.97952V0Z" fill="#FF6C0E"/>
<path d="M6.93327 0H6.11719V6.25263H6.93327V0Z" fill="#FF6C0E"/>
<path d="M9.87044 0H8.84375V6.25263H9.87044V0Z" fill="#FF6C0E"/>
<path d="M12.8086 0H11.5625V6.25263H12.8086V0Z" fill="#FF6C0E"/>
<path d="M15.7545 0H14.2891V6.25263H15.7545V0Z" fill="#FF6C0E"/>
<path d="M18.6995 0H17.0234V6.25263H18.6995V0Z" fill="#FF6C0E"/>
<path d="M21.6454 0H19.75V6.25263H21.6454V0Z" fill="#FF6C0E"/>
<path d="M24.5914 0H22.4766V6.25263H24.5914V0Z" fill="#FF6C0E"/>
<path d="M6.9129 8.83998V8.46289H0.65625V8.83998H6.9129Z" fill="#FF6C0E"/>
<path d="M6.9129 11.1895H0.65625V11.7858H6.9129V11.1895Z" fill="#FF6C0E"/>
<path d="M6.9129 13.918H0.65625V14.7335H6.9129V13.918Z" fill="#FF6C0E"/>
<path d="M6.9129 16.6445H0.65625V17.6706H6.9129V16.6445Z" fill="#FF6C0E"/>
<path d="M6.9129 19.3633H0.65625V20.6085H6.9129V19.3633Z" fill="#FF6C0E"/>
<path d="M6.9129 22.0898H0.65625V23.5543H6.9129V22.0898Z" fill="#FF6C0E"/>
<path d="M6.9129 24.8184H0.65625V26.4933H6.9129V24.8184Z" fill="#FF6C0E"/>
<path d="M6.9129 27.5449H0.65625V41.0674L33.3698 41.0499L29.3508 34.7973H6.9129V27.5449Z" fill="#FF6C0E"/>
</svg>
