<svg width="29" height="29" viewBox="0 0 29 29" fill="none" xmlns="http://www.w3.org/2000/svg">
<g clip-path="url(#clip0_348_16517)">
<path d="M20.4844 18.8092L22.1993 21.2907V16.9941C22.1338 17.1251 22.0683 17.256 21.9909 17.3809C21.6336 17.9641 21.1275 18.4402 20.4844 18.8092Z" fill="#FF6C0E"/>
<path d="M18.5871 15.994C18.9086 15.7144 19.0634 15.3573 19.0634 14.905V14.2683C19.0634 13.7982 18.9146 13.4292 18.6049 13.1376C18.2953 12.846 17.7236 12.6973 16.9138 12.6973H13.7578V22.0639H18.8372L15.2167 16.4344H16.6816C17.8427 16.4344 18.3608 16.1964 18.5871 15.994Z" fill="#FF6C0E"/>
<path d="M22.1953 9.32425C22.1953 7.77702 20.9389 6.52734 19.3966 6.52734H6.69531V22.071H10.155V9.53848H17.2589C18.0985 9.53848 18.8548 9.65154 19.5157 9.88363C20.1827 10.1157 20.7543 10.4371 21.2128 10.8417C21.6296 11.2047 21.9572 11.6451 22.1953 12.139V9.32425Z" fill="#FF6C0E"/>
<path d="M20.0512 0.361328H17.5859V4.60429H20.0512C22.2663 4.60429 24.0587 6.3955 24.0587 8.60922V23.9684L27.0062 28.2232H28.3044V8.60326C28.3044 4.05681 24.6005 0.361328 20.0571 0.361328H20.0512Z" fill="#FF6C0E"/>
<path d="M0.857614 0.361328H0.601562V4.60429H0.857614V0.361328Z" fill="#FF6C0E"/>
<path d="M2.85804 0.361328H2.45312V4.60429H2.85804V0.361328Z" fill="#FF6C0E"/>
<path d="M4.85847 0.361328H4.30469V4.60429H4.85847V0.361328Z" fill="#FF6C0E"/>
<path d="M6.85295 0.361328H6.15625V4.60429H6.85295V0.361328Z" fill="#FF6C0E"/>
<path d="M8.84556 0.361328H8V4.60429H8.84556V0.361328Z" fill="#FF6C0E"/>
<path d="M10.846 0.361328H9.85156V4.60429H10.846V0.361328Z" fill="#FF6C0E"/>
<path d="M12.8483 0.361328H11.7109V4.60429H12.8483V0.361328Z" fill="#FF6C0E"/>
<path d="M14.8487 0.361328H13.5625V4.60429H14.8487V0.361328Z" fill="#FF6C0E"/>
<path d="M16.8491 0.361328H15.4141V4.60429H16.8491V0.361328Z" fill="#FF6C0E"/>
<path d="M4.84725 6.3594V6.10352H0.601562V6.3594H4.84725Z" fill="#FF6C0E"/>
<path d="M4.84725 7.95508H0.601562V8.35974H4.84725V7.95508Z" fill="#FF6C0E"/>
<path d="M4.84725 9.80469H0.601562V10.3581H4.84725V9.80469Z" fill="#FF6C0E"/>
<path d="M4.84725 11.6562H0.601562V12.3525H4.84725V11.6562Z" fill="#FF6C0E"/>
<path d="M4.84725 13.5H0.601562V14.345H4.84725V13.5Z" fill="#FF6C0E"/>
<path d="M4.84725 15.3516H0.601562V16.3454H4.84725V15.3516Z" fill="#FF6C0E"/>
<path d="M4.84725 17.2031H0.601562V18.3397H4.84725V17.2031Z" fill="#FF6C0E"/>
<path d="M4.84725 19.0527H0.601562V28.229L22.8006 28.2171L20.0734 23.9741H4.84725V19.0527Z" fill="#FF6C0E"/>
</g>
<defs>
<clipPath id="clip0_348_16517">
<rect width="28" height="28" fill="white" transform="translate(0.601562 0.361328)"/>
</clipPath>
</defs>
</svg>
