<svg width="17" height="26" viewBox="0 0 17 26" fill="none" xmlns="http://www.w3.org/2000/svg">
<path d="M4.62509 11.8905C5.22806 12.4982 5.22806 13.4866 4.62509 14.0944L1.33977 17.4059C-0.446592 19.2008 -0.446592 22.1147 1.33977 23.9097C3.12049 25.7046 6.00572 25.7046 7.79208 23.9097L15.8504 15.787C17.3832 14.242 17.3832 11.7428 15.8504 10.1978L7.80898 2.0922C6.02826 0.297276 3.1374 0.297276 1.35667 2.0922C0.466312 2.98967 0.0211315 4.17114 0.0211313 5.34693C0.0211312 6.52272 0.466312 7.70419 1.35667 8.60166L4.62509 11.8905ZM2.74293 3.48952C3.2332 2.99535 3.88688 2.7227 4.58565 2.7227C5.28441 2.7227 5.93246 2.99535 6.42272 3.48952L11.4211 8.52781L12.8074 9.92513L14.4642 11.5951C14.8361 11.97 15.039 12.4642 15.0389 12.9924C15.0389 13.5207 14.8361 14.0148 14.4642 14.3897L6.40582 22.5123C5.91555 23.0122 5.26187 23.2848 4.56311 23.2848C3.86434 23.2848 3.21629 23.0122 2.72039 22.5123C2.2245 22.0125 1.95964 21.3593 1.95964 20.6606C1.95964 19.962 2.23013 19.2974 2.72039 18.8032L6.01135 15.4917C7.37507 14.1114 7.37507 11.8734 6.01135 10.4931L2.74293 7.20434C1.7286 6.18191 1.7286 4.51763 2.74293 3.48952Z" fill="#323232"/>
</svg>
