<svg width="74" height="72" viewBox="0 0 74 72" fill="none" xmlns="http://www.w3.org/2000/svg">
<rect x="1" width="72" height="72" rx="36" fill="#282A2A"/>
<path d="M21.9997 33.0208C24.6588 33.0208 26.8226 30.7728 26.8226 28.01C26.8226 25.2473 24.6588 23 21.9997 23C19.3405 23 17.1774 25.2473 17.1774 28.01C17.1774 30.7728 19.3405 33.0208 21.9997 33.0208ZM21.9997 25.4945C23.3345 25.4945 24.4209 26.6225 24.4209 28.01C24.4209 29.3968 23.3345 30.5256 21.9997 30.5256C20.6648 30.5256 19.5784 29.3968 19.5784 28.01C19.5791 26.6232 20.6648 25.4945 21.9997 25.4945ZM21.9997 35.3626C16.4859 35.3626 12 40.0232 12 45.7524C12 46.4411 12.538 47 13.2009 47H30.7991C31.462 47 32 46.4418 32 45.7524C32 40.0232 27.5141 35.3626 21.9997 35.3626ZM14.4966 44.5048C15.0736 40.7423 18.2185 37.8578 22.0003 37.8578C25.7822 37.8578 28.927 40.7423 29.5041 44.5048H14.4966Z" fill="#F3F3F3" stroke="#F3F3F3"/>
<path d="M51.9997 33.0208C54.6588 33.0208 56.8226 30.7728 56.8226 28.01C56.8226 25.2473 54.6588 23 51.9997 23C49.3405 23 47.1774 25.2473 47.1774 28.01C47.1774 30.7728 49.3405 33.0208 51.9997 33.0208ZM51.9997 25.4945C53.3345 25.4945 54.4209 26.6225 54.4209 28.01C54.4209 29.3968 53.3345 30.5256 51.9997 30.5256C50.6648 30.5256 49.5784 29.3968 49.5784 28.01C49.5791 26.6232 50.6648 25.4945 51.9997 25.4945ZM51.9997 35.3626C46.4859 35.3626 42 40.0232 42 45.7524C42 46.4411 42.538 47 43.2009 47H60.7991C61.462 47 62 46.4418 62 45.7524C62 40.0232 57.5141 35.3626 51.9997 35.3626ZM44.4966 44.5048C45.0736 40.7423 48.2185 37.8578 52.0003 37.8578C55.7822 37.8578 58.927 40.7423 59.5041 44.5048H44.4966Z" fill="#F3F3F3" stroke="#F3F3F3"/>
<path d="M51 50.5H23C23 50.5 23 35 37 35C50.3636 35 51 50.5 51 50.5Z" fill="#282A2A"/>
<path d="M36.9997 36.0208C39.6588 36.0208 41.8226 33.7728 41.8226 31.01C41.8226 28.2473 39.6588 26 36.9997 26C34.3405 26 32.1774 28.2473 32.1774 31.01C32.1774 33.7728 34.3405 36.0208 36.9997 36.0208ZM36.9997 28.4945C38.3345 28.4945 39.4209 29.6225 39.4209 31.01C39.4209 32.3968 38.3345 33.5256 36.9997 33.5256C35.6648 33.5256 34.5784 32.3968 34.5784 31.01C34.5791 29.6232 35.6648 28.4945 36.9997 28.4945ZM36.9997 38.3626C31.4859 38.3626 27 43.0232 27 48.7524C27 49.4411 27.538 50 28.2009 50H45.7991C46.462 50 47 49.4418 47 48.7524C47 43.0232 42.5141 38.3626 36.9997 38.3626ZM29.4966 47.5048C30.0736 43.7423 33.2185 40.8578 37.0003 40.8578C40.7822 40.8578 43.927 43.7423 44.5041 47.5048H29.4966Z" fill="#F3F3F3" stroke="#F3F3F3"/>
</svg>
