<svg width="72" height="72" viewBox="0 0 72 72" fill="none" xmlns="http://www.w3.org/2000/svg">
<rect width="72" height="72" rx="36" fill="#282A2A"/>
<path d="M35.9997 34.0208C38.6588 34.0208 40.8226 31.7728 40.8226 29.01C40.8226 26.2473 38.6588 24 35.9997 24C33.3405 24 31.1774 26.2473 31.1774 29.01C31.1774 31.7728 33.3405 34.0208 35.9997 34.0208ZM35.9997 26.4945C37.3345 26.4945 38.4209 27.6225 38.4209 29.01C38.4209 30.3968 37.3345 31.5256 35.9997 31.5256C34.6648 31.5256 33.5784 30.3968 33.5784 29.01C33.5791 27.6232 34.6648 26.4945 35.9997 26.4945ZM35.9997 36.3626C30.4859 36.3626 26 41.0232 26 46.7524C26 47.4411 26.538 48 27.2009 48H44.7991C45.462 48 46 47.4418 46 46.7524C46 41.0232 41.5141 36.3626 35.9997 36.3626ZM28.4966 45.5048C29.0736 41.7423 32.2185 38.8578 36.0003 38.8578C39.7822 38.8578 42.927 41.7423 43.5041 45.5048H28.4966Z" fill="#F3F3F3" stroke="#F3F3F3"/>
</svg>
