<svg width="318" height="65" viewBox="0 0 318 65" fill="none" xmlns="http://www.w3.org/2000/svg">
<path d="M16.2224 62.5572C14.7835 62.5572 13.7152 62.0775 13.0176 61.1183C12.3636 60.1154 12.0365 58.9382 12.0365 57.5865C12.0365 56.8016 12.1237 56.0822 12.2982 55.4282C11.0773 57.2159 9.6384 58.7638 7.98151 60.0718C6.36822 61.3799 4.92934 62.0339 3.66487 62.0339C2.57481 62.0339 1.76817 61.6851 1.24494 60.9875C0.76531 60.2898 0.525497 59.505 0.525497 58.6329C0.525497 57.2377 0.808913 55.7116 1.37574 54.0547C1.94258 52.3978 2.68382 50.7409 3.59947 49.084C4.55872 47.4271 5.62698 45.9228 6.80425 44.5712C7.98151 43.2195 9.18058 42.173 10.4014 41.4318C9.31139 41.4754 8.15592 41.737 6.93505 42.2166C5.71419 42.6527 4.66773 42.8707 3.79568 42.8707C3.09804 42.8707 2.48761 42.5873 1.96438 42.0204C1.48475 41.41 1.24494 40.9086 1.24494 40.5161C1.24494 40.2109 1.39755 40.0583 1.70276 40.0583C1.87717 40.0583 2.11699 40.1455 2.4222 40.3199C2.85823 40.5815 3.40326 40.756 4.05729 40.8432C4.71133 40.9304 5.40897 40.974 6.15021 40.974C7.15307 40.974 8.11232 40.9304 9.02797 40.8432C9.98722 40.7123 10.7067 40.6251 11.1863 40.5815C11.3171 40.5379 11.4697 40.5161 11.6441 40.5161C11.8185 40.5161 11.9929 40.5161 12.1673 40.5161C12.6034 40.5161 13.0176 40.5597 13.41 40.6469C13.8024 40.7341 13.9986 40.9086 13.9986 41.1702C13.9986 41.4754 13.7588 41.8024 13.2792 42.1512C12.6688 42.5873 11.8403 43.4157 10.7939 44.6366C9.79101 45.8574 8.74456 47.2745 7.65449 48.8878C6.60804 50.5011 5.69238 52.1362 4.90754 53.7931C4.51512 54.7523 4.1881 55.668 3.92649 56.54C3.70847 57.4121 3.59947 58.1533 3.59947 58.7638C3.59947 59.8538 3.99189 60.3988 4.77673 60.3988C5.43077 60.3988 7.04406 58.851 9.6166 55.7552C11.4043 53.5751 12.865 51.3513 13.9986 49.084C15.1323 46.8167 16.2224 45.0072 17.2688 43.6555C17.5304 43.3067 17.8357 43.0451 18.1845 42.8707C18.5769 42.6963 18.9257 42.6091 19.2309 42.6091C19.667 42.6091 20.0376 42.7181 20.3428 42.9361C20.648 43.1541 20.8006 43.4375 20.8006 43.7863C20.8006 44.1351 20.6262 44.5494 20.2774 45.029C20.0158 45.3342 19.6452 45.9228 19.1655 46.7949C18.6859 47.6669 18.1627 48.6916 17.5958 49.8689C17.0726 51.0461 16.593 52.267 16.157 53.5315C15.7209 54.7523 15.4157 55.9296 15.2413 57.0633C15.1977 57.3685 15.1541 57.6737 15.1105 57.9789C15.1105 58.2405 15.1105 58.5021 15.1105 58.7638C15.1105 59.723 15.2413 60.3988 15.5029 60.7913C15.8081 61.1837 16.1352 61.3581 16.484 61.3145C17.356 61.3145 18.3371 60.8785 19.4271 60.0064C20.5608 59.1344 21.6945 57.9571 22.8281 56.4746C24.0054 54.9921 25.0955 53.3353 26.0983 51.5039C27.1012 49.6726 27.9296 47.7977 28.5837 45.8792C29.2377 43.9607 29.6083 42.1294 29.6955 40.3853C29.6955 40.2545 29.6955 40.1019 29.6955 39.9275C29.7391 39.7095 29.7609 39.4915 29.7609 39.2735C29.7609 38.4014 29.6083 37.464 29.3031 36.4611C29.0415 35.4583 28.4311 34.9568 27.4718 34.9568C26.8614 34.9568 26.1637 35.1966 25.3789 35.6763C25.1609 35.8071 25.0301 35.8289 24.9865 35.7417C24.9865 35.6109 25.0519 35.4583 25.1827 35.2838C25.3571 35.153 25.7059 34.935 26.2291 34.6298C26.7524 34.3246 27.2974 34.172 27.8642 34.172C29.7391 34.172 31.0908 34.6298 31.9192 35.5455C32.7477 36.4611 33.1619 37.682 33.1619 39.2081C33.1619 41.4754 32.5079 44.1133 31.1998 47.1219C29.8917 50.1305 28.0822 53.1172 25.7713 56.0822C24.4196 57.8263 22.8935 59.3524 21.193 60.6605C19.5362 61.9249 17.8793 62.5572 16.2224 62.5572ZM43.511 36.1995C43.0314 36.1995 42.639 36.0469 42.3338 35.7417C42.0285 35.3929 41.8759 35.0004 41.8759 34.5644C41.8759 33.9104 42.0939 33.3653 42.53 32.9293C43.0096 32.4497 43.5328 32.2099 44.0997 32.2099C44.6665 32.2099 45.1025 32.4061 45.4077 32.7985C45.7565 33.1473 45.8874 33.6052 45.8001 34.172C45.6693 34.7388 45.3859 35.2184 44.9499 35.6109C44.5575 36.0033 44.0779 36.1995 43.511 36.1995ZM34.5507 62.0339C33.5915 62.0339 32.763 61.7287 32.0654 61.1183C31.3677 60.4642 31.0189 59.3742 31.0189 57.8481C31.0189 57.1941 31.0843 56.4746 31.2151 55.6898C31.6076 53.6405 32.2398 51.6784 33.1118 49.8035C34.0275 47.9286 34.8995 46.3153 35.728 44.9636C36.6 43.5683 37.1669 42.6527 37.4285 42.2166C37.6465 41.7806 38.2133 41.3664 39.129 40.974C40.0446 40.5379 40.8077 40.3199 41.4181 40.3199C41.9413 40.3199 42.2029 40.4943 42.2029 40.8432C42.2029 41.1484 42.0939 41.4318 41.8759 41.6934C41.2219 42.7399 40.4589 43.9389 39.5868 45.2906C38.7584 46.5987 37.9517 47.994 37.1669 49.4764C36.382 50.9589 35.728 52.4196 35.2048 53.8585C34.6815 55.2974 34.4199 56.6272 34.4199 57.8481C34.4199 58.5021 34.5289 59.0254 34.7469 59.4178C35.0085 59.8102 35.4664 60.0064 36.1204 60.0064C36.818 60.0064 37.6247 59.6794 38.5403 59.0254C39.456 58.3277 40.328 57.5647 41.1565 56.7362C42.0285 55.8642 42.6608 55.1884 43.0532 54.7087C43.4892 54.2291 43.9034 53.7713 44.2959 53.3353C44.7319 52.8992 45.1243 52.4414 45.4731 51.9618C45.6039 51.831 45.7129 51.7656 45.8001 51.7656C46.0618 51.7656 46.1926 51.9618 46.1926 52.3542C46.1926 52.5722 46.1054 52.7684 45.931 52.9428C45.4513 53.5097 44.9717 54.0983 44.4921 54.7087C44.0124 55.2756 43.511 55.8424 42.9878 56.4092C42.2902 57.2377 41.5053 58.0879 40.6333 58.96C39.7612 59.832 38.8238 60.5733 37.8209 61.1837C36.818 61.7505 35.728 62.0339 34.5507 62.0339ZM46.5932 62.2301C45.6339 62.2301 44.8273 61.9467 44.1732 61.3799C43.5192 60.8131 43.1922 59.8538 43.1922 58.5021C43.1922 58.1533 43.214 57.8045 43.2576 57.4557C43.3012 57.1069 43.3666 56.7362 43.4538 56.3438C43.8026 54.5997 44.5221 52.485 45.6121 49.9997C46.7022 47.4707 48.0975 44.6148 49.7979 41.4318H47.3126C46.833 41.4318 46.5932 41.301 46.5932 41.0394C46.5932 40.9086 46.7022 40.7778 46.9202 40.6469C47.1818 40.4725 47.5306 40.3853 47.9666 40.3853H50.3212C51.0624 39.1209 51.651 38.1398 52.0871 37.4422C52.5667 36.7009 52.9591 36.1341 53.2643 35.7417C54.398 34.3028 55.4227 33.2999 56.3383 32.7331C57.2976 32.1227 58.126 31.7739 58.8236 31.6866C59.5213 31.5994 60.0227 31.5558 60.3279 31.5558C59.7175 32.2099 59.0417 33.0601 58.3004 34.1066C57.5592 35.153 56.8397 36.2431 56.1421 37.3768C55.4445 38.4668 54.8558 39.4697 54.3762 40.3853H61.0474C61.527 40.3853 61.7668 40.4943 61.7668 40.7123C61.7668 40.8868 61.636 41.0612 61.3744 41.2356C61.1128 41.3664 60.764 41.4318 60.3279 41.4318H53.7222C53.0245 42.6963 52.3923 43.8299 51.8255 44.8328C51.3022 45.792 50.7572 46.8167 50.1904 47.9067C49.6671 48.9968 49.0131 50.3485 48.2283 51.9618C47.6178 53.3134 47.16 54.4689 46.8548 55.4282C46.5932 56.3874 46.4624 57.1941 46.4624 57.8481C46.4624 58.6765 46.6368 59.2652 46.9856 59.614C47.3344 59.9628 47.7704 60.1372 48.2937 60.1372C48.8169 60.1372 49.4273 59.9628 50.125 59.614C51.0842 59.1344 52.0435 58.4367 53.0027 57.5211C53.962 56.6054 54.8776 55.668 55.7497 54.7087C56.1857 54.2291 56.5999 53.7713 56.9923 53.3353C57.3848 52.8992 57.7554 52.4414 58.1042 51.9618C58.235 51.831 58.344 51.7656 58.4312 51.7656C58.6928 51.7656 58.8236 51.94 58.8236 52.2888C58.8236 52.5504 58.7364 52.7684 58.562 52.9428C57.6464 54.0765 56.6871 55.232 55.6843 56.4092C54.507 57.7609 53.1989 59.069 51.7601 60.3334C50.3212 61.5979 48.5989 62.2301 46.5932 62.2301ZM53.2694 62.361C55.4496 56.9107 57.6515 51.8746 59.8752 47.2527C62.1425 42.6309 64.2791 38.4886 66.2848 34.826C67.7673 32.0791 69.1843 30.008 70.536 28.6127C71.9313 27.2174 73.1958 26.2799 74.3294 25.8003C75.4631 25.3207 76.4005 25.1027 77.1418 25.1463C76.0953 26.2799 74.8963 27.8714 73.5446 29.9207C72.1929 31.9265 70.7758 34.2374 69.2933 36.8535C67.8109 39.4697 66.3284 42.2384 64.8459 45.1598C63.3634 48.0376 61.9681 50.9153 60.6601 53.7931C61.0525 53.2698 61.6193 52.5286 62.3606 51.5694C63.1454 50.5665 64.0392 49.4764 65.0421 48.2992C66.045 47.1219 67.0696 46.01 68.1161 44.9636C69.2061 43.8735 70.2744 43.0015 71.3209 42.3474C72.3673 41.6498 73.3048 41.301 74.1332 41.301C75.0925 41.301 75.7247 41.5408 76.0299 42.0204C76.3787 42.4564 76.5531 42.9797 76.5531 43.5901C76.5531 44.4186 76.2697 45.3996 75.7029 46.5333C75.1797 47.6669 74.5256 48.8224 73.7408 49.9997C72.9559 51.1769 72.1711 52.3106 71.3863 53.4007C70.645 54.4907 70.0564 55.45 69.6204 56.2784C69.0099 57.4993 68.7047 58.4585 68.7047 59.1562C68.7047 59.8102 68.9881 60.1372 69.555 60.1372C69.7294 60.1372 69.9474 60.0936 70.209 60.0064C70.5142 59.9192 70.8194 59.7884 71.1246 59.614C72.0839 59.1344 73.0431 58.4367 74.0024 57.5211C74.9617 56.6054 75.8773 55.668 76.7494 54.7087C77.1854 54.2291 77.5996 53.7713 77.992 53.3353C78.3844 52.8992 78.7551 52.4414 79.1039 51.9618C79.2347 51.831 79.3437 51.7656 79.4309 51.7656C79.6925 51.7656 79.8233 51.9618 79.8233 52.3542C79.8233 52.5722 79.7361 52.7684 79.5617 52.9428C78.6461 54.0765 77.6868 55.232 76.684 56.4092C76.1607 56.9761 75.6375 57.5429 75.1143 58.1097C74.6346 58.6329 74.155 59.1344 73.6754 59.614C71.8005 61.3581 70.0346 62.2301 68.3777 62.2301C67.5056 62.2301 66.8516 61.9685 66.4156 61.4453C66.0232 60.8785 65.8269 60.1808 65.8269 59.3524C65.8269 58.2187 66.1104 56.9107 66.6772 55.4282C67.2876 53.9021 68.0289 52.4632 68.9009 51.1115C68.9881 50.9807 69.2497 50.5665 69.6858 49.8689C70.1654 49.1712 70.6886 48.3646 71.2554 47.4489C71.8223 46.4897 72.3237 45.6176 72.7597 44.8328C73.1958 44.0043 73.4138 43.4157 73.4138 43.0669C73.4138 42.7617 73.2394 42.6745 72.8905 42.8053C72.5417 42.9361 71.9313 43.3721 71.0592 44.1133C70.1436 44.8982 69.1189 45.901 67.9853 47.1219C66.8516 48.3428 65.6743 49.6726 64.4535 51.1115C63.2326 52.5068 62.0771 53.9239 60.9871 55.3628C59.9406 56.8016 59.025 58.1315 58.2401 59.3524L57.8477 60.4642C57.5861 61.1619 57.1937 61.6197 56.6704 61.8377C56.1908 62.0121 55.6676 62.0993 55.1007 62.0993C54.4903 62.0993 53.8799 62.1865 53.2694 62.361ZM90.4187 63.342C89.3286 62.7606 88.4929 61.9976 87.9116 61.0529C87.4029 60.1082 87.1485 58.5094 87.1485 56.2566C87.1485 54.5852 87.5482 52.9138 88.3476 51.2423C89.2196 49.5709 90.2007 47.9358 91.2908 46.3371C92.3808 44.7383 93.3255 43.2849 94.1249 41.9768C96.8864 37.4712 99.6842 32.893 102.518 28.2421C105.425 23.5911 108.005 19.0855 110.258 14.7253C112.583 10.2924 114.182 6.25916 115.054 2.62563C116.289 2.62563 117.125 3.02532 117.561 3.82469C117.997 4.62407 118.215 5.56879 118.215 6.65885C118.215 7.67624 118.215 8.51196 118.215 9.16599C118.143 10.2561 117.561 11.9638 116.471 14.2893C115.454 16.6147 114.182 19.1582 112.656 21.9197C111.13 24.6812 109.604 27.3337 108.078 29.8771C106.624 32.4206 105.425 34.4191 104.48 35.8725C106.007 34.9278 107.932 33.5107 110.258 31.6212C112.583 29.6591 115.09 27.479 117.779 25.0809C120.541 22.6101 123.266 20.0666 125.955 17.4505C128.716 14.8343 131.26 12.3635 133.585 10.038C135.983 7.71258 137.982 5.75047 139.58 4.15171C141.252 2.48029 142.342 1.39022 142.851 0.881528C143.65 0.881528 144.05 1.31755 144.05 2.1896C144.05 3.13432 143.686 4.33339 142.96 5.7868C142.306 7.16755 141.579 8.36662 140.78 9.384C139.108 11.6368 136.964 13.9986 134.348 16.4694C131.805 18.9402 129.043 21.3747 126.064 23.7728C123.157 26.0983 120.25 28.3147 117.343 30.4222C114.509 32.457 111.929 34.2737 109.604 35.8725C107.351 37.3986 105.643 38.5976 104.48 39.4697C105.789 41.0684 107.424 42.9579 109.386 45.138C111.348 47.2454 113.092 49.4619 114.618 51.7874C116.144 54.1128 116.907 56.4383 116.907 58.7638C116.907 61.5979 116.18 63.015 114.727 63.015C113.492 60.3988 111.929 57.71 110.04 54.9485C108.223 52.1871 106.406 49.7526 104.589 47.6451C102.773 45.465 101.283 43.9389 100.12 43.0669C99.3209 44.375 98.5578 45.7194 97.8311 47.1001C97.1044 48.4808 96.3777 49.8616 95.651 51.2423C94.2703 53.8585 93.1075 56.2929 92.1628 58.5457C91.2181 60.7259 90.6367 62.3246 90.4187 63.342ZM158.259 41.9768C158.041 41.6861 157.387 41.3955 156.297 41.1048C155.207 40.7414 153.572 40.5597 151.391 40.5597C150.81 40.5597 150.156 40.5597 149.429 40.5597C148.703 40.5597 147.94 40.6324 147.14 40.7778C146.413 40.7778 145.251 40.8868 143.652 41.1048C142.053 41.2501 140.382 41.3955 138.638 41.5408C136.894 41.6861 135.331 41.7588 133.95 41.7588C132.134 41.7588 130.971 41.2864 130.462 40.3417C130.026 39.3243 129.808 38.2343 129.808 37.0715C131.044 37.2896 132.606 37.3986 134.495 37.3986C136.676 37.3986 139.037 37.3259 141.581 37.1806C144.124 37.0352 146.522 36.8899 148.775 36.7445C151.028 36.5992 152.736 36.5992 153.899 36.7445C156.006 36.8899 157.241 37.5076 157.605 38.5976C158.041 39.6877 158.259 40.8141 158.259 41.9768ZM175.982 64.2141C174.31 64.2141 172.602 64.0687 170.858 63.778C169.114 63.4873 167.661 62.8333 166.498 61.8159C165.335 60.7259 164.754 59.0544 164.754 56.8016C164.754 55.2756 165.335 53.1681 166.498 50.4793C167.734 47.7178 169.296 44.7746 171.185 41.6498C173.075 38.4523 175.001 35.3638 176.963 32.3843C178.925 29.4048 180.669 26.8976 182.195 24.8629C183.939 22.5374 185.502 20.2119 186.882 17.8865C188.263 15.561 189.099 13.4899 189.389 11.6731C189.317 11.5278 188.59 11.6368 187.209 12.0001C185.829 12.2908 184.302 12.4362 182.631 12.4362C181.468 12.4362 180.669 12.2908 180.233 12.0001C179.87 11.6368 179.688 11.2008 179.688 10.6921C179.688 10.3287 179.761 9.96537 179.906 9.60201C180.051 9.16599 180.233 8.69363 180.451 8.18494C183.648 7.89425 187.1 7.31289 190.806 6.44084C194.585 5.49612 198.328 4.62407 202.034 3.82469C205.813 2.95265 209.301 2.51662 212.499 2.51662C217.368 2.51662 220.819 3.64302 222.854 5.89581C224.889 8.07593 225.906 10.6921 225.906 13.7442C225.906 16.4331 225.034 18.9402 223.29 21.2657C221.546 23.5185 219.293 25.5532 216.532 27.37C213.77 29.1868 210.827 30.7492 207.702 32.0573C204.578 33.3653 201.598 34.3827 198.764 35.1094C195.93 35.8361 193.641 36.2358 191.897 36.3085C194.803 36.3085 197.529 36.7082 200.072 37.5076C202.688 38.2343 204.832 39.3607 206.503 40.8868C208.175 42.4128 209.01 44.4113 209.01 46.8821C209.01 49.3529 208.284 51.533 206.83 53.4225C205.377 55.3119 203.488 56.947 201.162 58.3277C198.909 59.7085 196.438 60.8349 193.75 61.7069C191.061 62.579 188.445 63.1967 185.901 63.56C183.43 63.996 181.323 64.2141 179.579 64.2141H175.982ZM182.522 36.0905C184.92 35.9451 187.827 35.3638 191.243 34.3464C194.658 33.329 198.183 32.0209 201.816 30.4222C205.522 28.8234 208.938 27.043 212.063 25.0809C215.26 23.1188 217.84 21.0477 219.802 18.8675C221.837 16.6874 222.854 14.5436 222.854 12.4362C222.854 9.45667 219.584 7.96692 213.044 7.96692C209.701 7.96692 206.249 8.36661 202.688 9.16599C199.127 9.8927 195.639 10.5467 192.224 11.1281C192.66 11.8548 192.878 12.7995 192.878 13.9623C192.878 15.561 192.442 17.4141 191.57 19.5216C190.77 21.5563 189.789 23.6638 188.626 25.8439C187.464 27.9514 186.301 29.9135 185.138 31.7302C184.048 33.547 183.176 35.0004 182.522 36.0905ZM179.034 61.8159C181.505 61.8159 184.121 61.3436 186.882 60.3988C189.716 59.3815 192.333 58.0734 194.731 56.4746C197.202 54.8759 199.2 53.2044 200.726 51.4603C202.325 49.6436 203.124 47.9358 203.124 46.3371C203.124 44.0116 202.252 42.3038 200.508 41.2138C198.764 40.051 196.62 39.288 194.077 38.9246C191.606 38.5613 189.244 38.3796 186.991 38.3796C185.683 38.3796 184.484 38.416 183.394 38.4886C182.377 38.4886 181.577 38.525 180.996 38.5976C179.906 40.4871 178.489 42.6672 176.745 45.138C175.001 47.6088 173.438 50.0433 172.057 52.4414C170.677 54.8395 169.986 56.9833 169.986 58.8728C169.986 59.6721 170.531 60.3625 171.621 60.9439C172.784 61.5252 175.255 61.8159 179.034 61.8159ZM235.563 18.9765C234.763 18.9765 234.109 18.7222 233.601 18.2135C233.092 17.6321 232.838 16.9781 232.838 16.2514C232.838 15.1613 233.201 14.2529 233.928 13.5262C234.727 12.7269 235.599 12.3272 236.544 12.3272C237.489 12.3272 238.215 12.6542 238.724 13.3082C239.305 13.8896 239.523 14.6526 239.378 15.5973C239.16 16.5421 238.688 17.3414 237.961 17.9955C237.307 18.6495 236.508 18.9765 235.563 18.9765ZM220.629 62.0339C219.03 62.0339 217.65 61.5252 216.487 60.5079C215.324 59.4178 214.743 57.601 214.743 55.0575C214.743 53.9675 214.852 52.7684 215.07 51.4603C215.724 48.0448 216.777 44.7746 218.231 41.6498C219.757 38.525 221.21 35.8361 222.591 33.5834C224.045 31.2579 224.989 29.7318 225.425 29.0051C225.789 28.2784 226.733 27.588 228.259 26.934C229.786 26.2073 231.057 25.8439 232.075 25.8439C232.947 25.8439 233.383 26.1346 233.383 26.716C233.383 27.2247 233.201 27.697 232.838 28.133C231.748 29.8771 230.476 31.8756 229.022 34.1284C227.642 36.3085 226.297 38.634 224.989 41.1048C223.681 43.5756 222.591 46.01 221.719 48.4082C220.847 50.8063 220.411 53.0228 220.411 55.0575C220.411 56.1476 220.593 57.0197 220.956 57.6737C221.392 58.3277 222.155 58.6547 223.245 58.6547C224.408 58.6547 225.752 58.1097 227.278 57.0197C228.804 55.8569 230.258 54.5852 231.639 53.2044C233.092 51.751 234.146 50.6246 234.8 49.8253C235.527 49.0259 236.217 48.2628 236.871 47.5361C237.598 46.8094 238.252 46.0464 238.833 45.247C239.051 45.029 239.233 44.92 239.378 44.92C239.814 44.92 240.032 45.247 240.032 45.901C240.032 46.2644 239.887 46.5914 239.596 46.8821C238.797 47.8268 237.997 48.8079 237.198 49.8253C236.399 50.77 235.563 51.7147 234.691 52.6594C233.528 54.0402 232.22 55.4572 230.767 56.9107C229.313 58.3641 227.751 59.5995 226.079 60.6169C224.408 61.5616 222.591 62.0339 220.629 62.0339ZM243.207 62.797C240.518 62.797 238.483 61.9249 237.103 60.1808C235.794 58.4367 235.14 56.2203 235.14 53.5315C235.14 50.4793 235.94 47.1364 237.539 43.5029C238.992 40.2327 240.845 37.2532 243.098 34.5644C245.423 31.8756 247.93 29.7318 250.619 28.133C253.308 26.4616 255.888 25.6259 258.359 25.6259C261.338 25.6259 263.518 26.5343 264.899 28.3511C266.28 30.1678 266.97 32.457 266.97 35.2184C266.97 38.1979 266.207 41.3955 264.681 44.811C263.882 46.5551 262.719 48.4445 261.193 50.4793C259.667 52.5141 257.923 54.4762 255.961 56.3656C253.998 58.2551 251.891 59.8175 249.638 61.0529C247.458 62.2156 245.314 62.797 243.207 62.797ZM245.278 60.6169C246.804 60.6169 248.33 60.1082 249.856 59.0908C251.382 58.0007 252.836 56.6926 254.217 55.1666C255.597 53.6405 256.796 52.1144 257.814 50.5883C258.904 48.9895 259.703 47.6451 260.212 46.5551C261.447 44.2296 262.356 42.0132 262.937 39.9057C263.518 37.7256 263.809 35.8361 263.809 34.2374C263.809 30.7492 262.501 29.0051 259.885 29.0051C258.286 29.0051 256.578 29.6591 254.762 30.9672C253.017 32.2026 251.31 33.874 249.638 35.9815C247.967 38.0889 246.513 40.4507 245.278 43.0669C242.662 48.2992 241.354 52.5504 241.354 55.8206C241.354 58.4367 242.19 59.9628 243.861 60.3988C244.079 60.4715 244.297 60.5442 244.515 60.6169C244.733 60.6169 244.987 60.6169 245.278 60.6169ZM267.385 63.669C266.804 63.7417 266.331 63.4147 265.968 62.688C265.605 62.0339 265.423 61.1256 265.423 59.9628C265.423 58.0007 265.968 56.1839 267.058 54.5125C268.148 52.7684 269.492 51.097 271.091 49.4982C272.69 47.8995 274.18 46.4097 275.56 45.029C277.45 43.1395 279.448 41.1774 281.556 39.1427C283.736 37.0352 285.952 34.9641 288.205 32.9293L285.807 17.2324C285.153 12.9449 284.172 9.82003 282.864 7.85792C281.556 5.82314 280.72 4.66041 280.357 4.36972C280.72 4.22438 281.301 4.07904 282.101 3.9337C282.9 3.71569 283.554 3.60668 284.063 3.60668C285.807 3.60668 287.151 4.18805 288.096 5.35078C289.113 6.51351 289.877 8.00326 290.385 9.82003C290.894 11.5641 291.257 13.3809 291.475 15.2703L293.219 28.024C296.126 25.1172 298.96 22.174 301.722 19.1946C304.556 16.2151 307.1 13.3809 309.352 10.6921C311.678 7.93059 313.531 5.49612 314.912 3.38867C315.638 3.38867 316.256 3.60668 316.765 4.04271C317.273 4.47873 317.528 5.13277 317.528 6.00482C317.528 8.11227 316.801 10.147 315.348 12.1092C313.894 14.0713 312.332 15.888 310.66 17.5595C308.044 20.0303 305.101 22.5737 301.831 25.1899C298.633 27.806 295.945 30.1315 293.764 32.1663L295.727 46.3371C296.017 48.5899 296.49 50.879 297.144 53.2044C297.87 55.5299 298.633 57.5284 299.433 59.1998C300.305 60.7985 301.068 61.7796 301.722 62.1429C300.995 62.9423 300.014 63.342 298.779 63.342C297.689 63.342 296.599 62.9787 295.509 62.2519C294.418 61.5252 293.583 60.5442 293.001 59.3088C291.548 55.9659 290.603 52.3687 290.167 48.5172C289.804 44.6656 289.332 40.8868 288.75 37.1806C285.407 40.7414 282.282 44.2659 279.376 47.7541C276.541 51.1697 274.071 54.2582 271.963 57.0197C269.928 59.7811 268.402 61.9976 267.385 63.669Z" fill="#F3F3F3"/>
</svg>
